<svg version="1.1" xmlns="http://www.w3.org/2000/svg" width="1024" height="1024" viewBox="0 0 1242 1242" fill="none" role="img" aria-labelledby="title desc">
  <title id="title">Burning book</title>
  <desc id="desc">Hand-drawn open book with red flames.</desc>
  <g fill="#0b0b0b">
    <path d="M0 0 C68.541 -1.965 136.676 26.157 186.375 72.775 C207.498 92.859 228.803 120.274 235.862 149.071 C236.618 148.719 237.373 148.367 238.151 148.004 C253.013 141.339 268.465 136.626 284.362 133.133 C285.323 132.922 286.284 132.71 287.274 132.492 C291.875 131.53 296.132 130.811 300.862 131.071 C301.862 134.071 301.862 134.071 300.964 136.446 C300.477 137.312 299.989 138.178 299.487 139.071 C299.026 139.937 298.564 140.803 298.089 141.696 C294.84 145.162 291.38 145.892 286.862 147.071 C285.924 147.32 284.985 147.569 284.019 147.826 C281.961 148.363 279.901 148.893 277.84 149.417 C268.225 151.875 258.829 154.559 249.612 158.258 C248.81 158.579 248.008 158.899 247.181 159.23 C240.745 161.911 235.45 165.028 230.862 170.383 C226.984 174.817 223.019 179.15 218.987 183.446 C214.794 187.923 210.621 192.414 206.487 196.946 C200.034 204.005 193.462 210.951 186.9 217.908 C181.833 223.286 176.786 228.682 171.734 234.074 C169.828 236.108 167.919 238.14 166.011 240.172 C164.732 241.534 163.453 242.896 162.175 244.258 C161.55 244.924 160.925 245.59 160.281 246.275 C156.9 249.88 153.542 253.504 150.208 257.151 C145.07 262.766 139.785 268.191 134.372 273.542 C130.949 276.94 127.722 280.434 124.601 284.114 C121.645 287.441 118.429 290.51 115.265 293.637 C113.225 295.703 111.307 297.801 109.425 300.008 C106.561 303.36 103.499 306.476 100.362 309.571 C97.267 312.624 94.243 315.694 91.425 319.008 C87.927 323.113 84.107 326.854 80.274 330.64 C76.851 334.037 73.629 337.539 70.503 341.211 C68.074 343.964 65.442 346.5 62.827 349.075 C60.94 350.992 59.175 352.967 57.425 355.008 C54.152 358.818 50.631 362.319 47.058 365.844 C44.422 368.517 41.985 371.324 39.542 374.172 C37.341 376.66 34.981 378.963 32.612 381.29 C30.78 383.155 29.069 385.09 27.362 387.071 C24.58 390.3 21.652 393.304 18.612 396.29 C16.166 398.78 13.917 401.427 11.64 404.071 C8.851 407.209 5.87 410.145 2.862 413.071 C6.097 413.071 8.49 412.221 11.509 411.14 C88.625 383.561 178.742 408.187 301.679 458.809 C316.546 465.879 331.274 473.224 345.98 480.622 C349.604 482.444 353.233 484.258 356.862 486.071 C362.956 479.544 368.869 472.952 374.476 465.997 C379.157 460.258 384.019 454.672 388.862 449.071 C389.593 448.225 390.324 447.38 391.077 446.508 C394.372 442.718 394.372 442.718 395.862 441.071 C396.355 440.501 396.847 439.931 397.354 439.344 C397.603 439.134 397.603 439.134 398.862 438.071 C401.925 438.383 401.925 438.383 404.862 440.071 C407.344 444.474 407.344 444.474 406.862 448.071 C404.737 451.616 402.065 454.546 399.25 457.562 C396.905 460.112 394.709 462.787 392.487 465.446 C391.556 466.546 390.624 467.645 389.69 468.743 C389.224 469.291 388.758 469.84 388.278 470.405 C387.334 471.515 386.39 472.626 385.446 473.737 C367.421 494.953 367.421 494.953 365.862 498.071 C366.128 500.355 366.128 500.355 366.683 503.208 C366.885 504.252 367.088 505.296 367.296 506.372 C371.814 528.513 379.605 547.934 389.862 568.071 C393.081 566.998 393.504 566.575 395.394 563.965 C395.869 563.319 396.344 562.672 396.833 562.006 C397.086 561.656 397.086 561.656 398.362 559.883 C399.443 558.412 400.525 556.942 401.608 555.473 C402.154 554.732 402.699 553.99 403.26 553.227 C405.592 550.088 407.999 547.012 410.425 543.946 C410.875 543.376 411.326 542.805 411.791 542.218 C412.697 541.072 413.605 539.926 414.512 538.78 C415.86 537.074 417.2 535.362 418.538 533.649 C426.073 524.004 433.789 514.511 441.528 505.03 C447.749 497.406 453.924 489.755 459.984 482.003 C463.403 477.638 466.89 473.333 470.413 469.051 C473.43 465.38 476.428 461.696 479.425 458.008 C479.988 457.316 480.551 456.623 481.131 455.91 C484.103 452.25 487.057 448.577 489.987 444.883 C493.482 440.498 497.096 436.222 500.73 431.952 C503.609 428.567 506.44 425.15 509.237 421.696 C513.883 415.991 518.704 410.447 523.534 404.899 C526.682 401.283 529.808 397.65 532.925 394.008 C533.414 393.438 533.902 392.867 534.406 392.28 C536.928 389.334 539.447 386.385 541.964 383.434 C546.435 378.196 550.914 372.978 555.55 367.883 C558.579 364.549 561.468 361.138 564.3 357.633 C568.162 352.858 572.239 348.334 576.397 343.817 C578.789 341.152 581.055 338.422 583.3 335.633 C586.959 331.096 590.812 326.81 594.781 322.547 C597.731 319.358 600.522 316.087 603.237 312.696 C607.402 307.513 611.867 302.666 616.434 297.841 C617.475 296.738 618.508 295.629 619.533 294.513 C620.622 293.332 621.742 292.179 622.87 291.036 C623.862 289.071 623.862 289.071 623.304 286.329 C621.593 282.463 619.745 278.698 617.8 274.946 C617.076 273.549 616.356 272.151 615.64 270.75 C615.322 270.139 615.005 269.528 614.678 268.898 C613.821 266.979 613.313 265.121 612.862 263.071 C609.412 265.782 606.531 268.38 603.8 271.821 C601.873 274.132 601.015 275.007 598.175 276.196 C595.862 276.071 595.862 276.071 594.05 274.946 C592.862 273.071 592.862 273.071 592.237 270.821 C593.246 266.383 596.61 264.097 599.862 261.071 C601.221 259.764 602.556 258.43 603.862 257.071 C604.161 256.772 604.161 256.772 605.675 255.258 C607.467 251.956 606.621 249.691 605.862 246.071 C605.61 244.749 605.359 243.428 605.108 242.106 C604.841 240.781 604.571 239.457 604.3 238.133 C604.161 237.449 604.023 236.766 603.88 236.061 C603.542 234.397 603.203 232.734 602.862 231.071 C600.862 231.071 600.862 231.071 599.382 232.321 C595.712 236.083 592.178 239.924 588.745 243.903 C586.647 246.319 584.508 248.696 582.362 251.071 C579.672 254.051 576.999 257.043 574.362 260.071 C570.97 263.966 567.51 267.799 564.05 271.633 C562.137 273.765 560.243 275.911 558.362 278.071 C554.967 281.969 551.506 285.804 548.042 289.641 C546.171 291.727 544.323 293.829 542.487 295.946 C539.034 299.913 535.474 303.778 531.912 307.646 C528.777 311.057 525.705 314.512 522.671 318.012 C519.585 321.525 516.416 324.964 513.265 328.418 C511.293 330.595 509.349 332.789 507.425 335.008 C504.463 338.418 501.421 341.749 498.362 345.071 C493.192 350.693 488.134 356.393 483.19 362.215 C477.119 369.355 470.914 376.33 464.53 383.192 C460.261 387.798 456.167 392.542 452.089 397.317 C451.055 398.527 450.021 399.736 448.987 400.946 C448.728 401.25 448.728 401.25 447.414 402.788 C444.366 406.349 441.271 409.857 438.112 413.321 C434.385 417.421 430.908 421.678 427.491 426.04 C425.862 428.071 425.862 428.071 423.862 430.071 C421.858 429.958 421.858 429.958 419.862 429.071 C418.71 427.215 418.71 427.215 417.925 424.883 C417.648 424.127 417.371 423.37 417.085 422.59 C416.688 418.095 419.055 415.061 421.808 411.684 C422.527 410.925 423.246 410.166 423.987 409.383 C427.205 405.911 430.275 402.388 433.237 398.696 C436.92 394.141 440.793 389.832 444.78 385.547 C447.731 382.358 450.522 379.087 453.237 375.696 C457.285 370.661 461.627 365.973 466.054 361.276 C470.194 356.858 474.026 352.254 477.812 347.528 C480.358 344.477 483.121 341.726 485.968 338.958 C488.452 336.483 490.728 333.86 493.015 331.204 C495.099 328.797 497.228 326.433 499.362 324.071 C502.013 321.134 504.645 318.185 507.237 315.196 C510.691 311.227 514.254 307.361 517.817 303.491 C520.349 300.736 522.853 297.964 525.3 295.133 C527.859 292.175 530.498 289.302 533.167 286.442 C538.289 280.951 543.147 275.345 547.851 269.485 C550.1 266.785 552.522 264.38 555.05 261.946 C557.313 259.605 559.322 257.108 561.362 254.571 C564.414 250.777 567.549 247.317 571.05 243.946 C573.313 241.605 575.322 239.108 577.362 236.571 C580.456 232.727 583.632 229.178 587.175 225.75 C592.087 220.861 596.455 215.413 600.862 210.071 C563.697 187.263 519.048 172.663 477.688 159.563 C476.789 159.277 475.891 158.992 474.966 158.697 C473.275 158.16 471.583 157.628 469.89 157.1 C466.533 156.035 463.812 155.037 460.862 153.071 C461.26 151.607 461.681 150.15 462.112 148.696 C462.344 147.884 462.576 147.072 462.815 146.235 C464.139 143.499 465.019 143.062 467.862 142.071 C470.335 142.419 470.335 142.419 473.14 143.274 C474.195 143.589 475.25 143.904 476.336 144.229 C477.479 144.589 478.622 144.95 479.8 145.321 C481.002 145.691 482.204 146.061 483.443 146.442 C487.257 147.629 491.061 148.844 494.862 150.071 C496.021 150.443 497.18 150.815 498.374 151.198 C529.666 161.355 560.037 174.234 589.862 188.071 C591.05 188.62 592.238 189.168 593.462 189.734 C596.956 191.354 600.442 192.99 603.925 194.633 C604.972 195.122 606.02 195.611 607.1 196.115 C607.582 196.345 607.582 196.345 610.022 197.512 C610.443 197.712 610.443 197.712 612.573 198.721 C615.148 200.239 616.948 201.776 618.862 204.071 C619.326 208.473 619.343 210.35 616.862 214.071 C616.202 214.071 615.542 214.071 614.862 214.071 C616.825 229.103 619.392 243.387 624.932 257.539 C625.884 260.129 626.626 262.73 627.366 265.387 C629.034 270.623 630.654 275.358 634.862 279.071 C641.535 282.032 648.602 282.973 655.784 283.938 C662.41 284.898 662.41 284.898 665.128 287.516 C667.387 290.844 668.031 293.44 668.112 297.383 C668.138 298.122 668.164 298.861 668.19 299.622 C667.361 305.813 663.367 310.1 659.362 314.571 C655.195 319.321 651.167 324.135 647.3 329.133 C643.755 333.705 640.126 338.177 636.362 342.571 C632.151 347.492 628.107 352.519 624.128 357.629 C620.597 362.158 616.994 366.623 613.362 371.071 C607.437 378.334 601.63 385.682 595.862 393.071 C590.141 400.401 584.377 407.687 578.487 414.883 C574.021 420.344 569.682 425.883 565.425 431.508 C560.407 438.138 555.199 444.581 549.884 450.975 C545.592 456.149 541.478 461.426 537.409 466.778 C534.537 470.525 531.542 474.17 528.55 477.821 C524.043 483.324 519.658 488.902 515.362 494.571 C510.543 500.93 505.586 507.155 500.531 513.328 C496.354 518.437 492.311 523.634 488.308 528.879 C485.774 532.197 483.197 535.48 480.612 538.758 C476.358 544.156 472.137 549.578 467.925 555.008 C463.046 561.296 458.109 567.534 453.123 573.736 C449.549 578.19 446.048 582.693 442.58 587.228 C439.088 591.792 435.543 596.313 431.979 600.821 C429.67 603.746 427.389 606.686 425.155 609.668 C424.717 610.25 424.279 610.832 423.827 611.432 C422.629 613.028 421.439 614.629 420.249 616.231 C416.583 620.592 412.868 624.545 406.955 625.321 C398.421 625.636 390.642 623.101 382.55 620.731 C380.955 620.274 379.359 619.819 377.764 619.365 C374.444 618.418 371.127 617.463 367.811 616.502 C363.105 615.139 358.393 613.795 353.679 612.457 C345.211 610.052 336.748 607.629 328.285 605.203 C320.699 603.028 313.11 600.858 305.522 598.688 C304.683 598.448 303.843 598.208 302.978 597.96 C287.989 593.672 272.991 589.417 257.988 585.176 C223.159 575.33 188.388 565.285 153.627 555.202 C138.173 550.72 122.718 546.24 107.262 541.766 C105.637 541.295 104.013 540.825 102.388 540.354 C92.197 537.404 82.006 534.456 71.812 531.515 C67.73 530.338 63.649 529.159 59.568 527.977 C55.753 526.873 51.937 525.772 48.121 524.673 C46.719 524.269 45.317 523.864 43.916 523.457 C41.995 522.9 40.072 522.347 38.15 521.795 C37.074 521.484 35.999 521.174 34.891 520.854 C26.64 518.721 26.64 518.721 23.476 520.145 C22.716 520.677 21.957 521.21 21.175 521.758 C-0.985 535.919 -29.373 533.336 -53.935 528.075 C-76.547 522.847 -99.64 512.336 -113.013 492.633 C-115.971 487.808 -117.315 483.65 -118.138 478.071 C-118.732 477.959 -119.327 477.847 -119.939 477.731 C-126.4 476.48 -132.754 474.957 -139.118 473.29 C-139.658 473.149 -139.658 473.149 -142.387 472.439 C-146.034 471.487 -149.68 470.53 -153.325 469.571 C-153.968 469.402 -154.611 469.233 -155.273 469.059 C-218.434 452.466 -281.36 435.007 -344.12 416.958 C-347.789 415.903 -351.457 414.848 -355.126 413.793 C-356.007 413.54 -356.888 413.287 -357.795 413.026 C-368.844 409.851 -379.904 406.725 -390.993 403.692 C-392.136 403.379 -393.28 403.066 -394.458 402.744 C-399.422 401.388 -404.388 400.044 -409.36 398.72 C-410.998 398.277 -412.636 397.834 -414.274 397.391 C-414.972 397.21 -415.669 397.029 -416.388 396.843 C-422.431 395.197 -429.138 393.277 -432.638 387.758 C-434.505 383.168 -435.035 379.964 -433.548 375.168 C-429.576 365.924 -420.873 359.706 -413.228 353.594 C-410.268 351.177 -407.393 348.687 -404.526 346.162 C-389.196 332.675 -389.196 332.675 -382.224 329.918 C-374.977 326.926 -374.977 326.926 -373.268 323.149 C-371.695 318.216 -370.85 313.19 -370.138 308.071 C-370.76 307.776 -371.383 307.48 -372.024 307.176 C-374.69 305.782 -375.758 304.758 -377.138 302.071 C-377.02 297.751 -376.615 295.638 -373.802 292.297 C-372.804 291.412 -371.79 290.546 -370.763 289.696 C-370.222 289.226 -369.682 288.756 -369.126 288.272 C-367.48 286.851 -365.813 285.457 -364.138 284.071 C-363.219 283.305 -362.299 282.539 -361.353 281.75 C-359.568 280.284 -357.776 278.826 -355.978 277.375 C-352.871 274.855 -349.812 272.284 -346.763 269.696 C-346.224 269.239 -345.685 268.782 -345.13 268.311 C-344.028 267.375 -342.927 266.44 -341.826 265.504 C-338.953 263.065 -336.077 260.63 -333.2 258.196 C-332.941 257.976 -332.941 257.976 -331.626 256.862 C-330.132 255.597 -328.635 254.334 -327.138 253.071 C-326.595 252.597 -326.053 252.124 -325.494 251.636 C-321.347 248.057 -321.347 248.057 -319.2 248.196 C-318.52 248.485 -317.839 248.773 -317.138 249.071 C-310.445 250.225 -310.445 250.225 -308.138 249.071 C-306.777 245.978 -307.247 244.713 -308.263 241.383 C-308.567 239.274 -308.567 239.274 -308.138 237.071 C-304.911 233.503 -301.029 230.872 -297.138 228.071 C-295.335 226.627 -293.543 225.169 -291.763 223.696 C-290.858 222.956 -289.953 222.216 -289.021 221.454 C-285.311 218.387 -281.642 215.274 -277.974 212.157 C-274.557 209.259 -271.113 206.399 -267.638 203.571 C-261.399 198.489 -255.269 193.282 -249.138 188.071 C-242.125 182.111 -235.088 176.193 -227.95 170.383 C-224.82 167.809 -221.726 165.195 -218.638 162.571 C-213.788 158.45 -208.886 154.401 -203.95 150.383 C-200.257 147.346 -196.615 144.251 -192.971 141.155 C-189.578 138.275 -186.155 135.439 -182.7 132.633 C-177.279 128.219 -171.979 123.673 -166.681 119.114 C-161.732 114.857 -156.743 110.649 -151.755 106.438 C-150.109 105.046 -148.465 103.651 -146.821 102.254 C-141.735 97.936 -136.635 93.646 -131.45 89.446 C-127.057 85.873 -122.853 82.135 -118.669 78.321 C-115.16 75.201 -111.506 72.273 -107.856 69.321 C-105.216 67.136 -102.67 64.879 -100.138 62.571 C-96.818 59.548 -93.44 56.646 -89.95 53.821 C-84.179 49.147 -78.581 44.288 -72.981 39.411 C-69.283 36.19 -65.556 33.004 -61.825 29.821 C-57.814 26.397 -53.851 22.934 -49.95 19.383 C-45.594 15.424 -41.075 11.701 -36.485 8.016 C-34.138 6.071 -34.138 6.071 -32.571 4.383 C-25.814 -1.803 -8.691 0.288 0 0 Z M-8.794 13.083 C-18.245 13.154 -25.171 13.824 -32.138 20.633 C-33.687 22.247 -35.201 23.886 -36.7 25.547 C-38.845 27.82 -41.246 29.706 -43.7 31.633 C-47.653 34.806 -51.429 38.119 -55.138 41.571 C-59.77 45.881 -64.559 49.921 -69.489 53.891 C-72.11 56.048 -74.629 58.284 -77.138 60.571 C-81.438 64.49 -85.897 68.163 -90.419 71.821 C-93.059 74.006 -95.605 76.263 -98.138 78.571 C-101.458 81.594 -104.835 84.496 -108.325 87.321 C-112.8 90.943 -117.172 94.666 -121.513 98.446 C-127.807 103.927 -134.153 109.342 -140.536 114.719 C-142.177 116.104 -143.814 117.493 -145.45 118.883 C-150.457 123.136 -155.477 127.365 -160.575 131.508 C-165.439 135.466 -170.197 139.536 -174.946 143.629 C-179.336 147.404 -183.799 151.078 -188.294 154.727 C-191.615 157.464 -194.878 160.262 -198.138 163.071 C-203.151 167.39 -208.223 171.622 -213.36 175.793 C-216.482 178.353 -219.562 180.957 -222.638 183.571 C-227.494 187.697 -232.402 191.751 -237.345 195.774 C-240.365 198.258 -243.348 200.785 -246.325 203.321 C-251.875 208.043 -257.517 212.644 -263.184 217.225 C-268.03 221.15 -272.808 225.145 -277.556 229.188 C-280.886 232.021 -284.247 234.811 -287.638 237.571 C-292.244 241.32 -296.782 245.143 -301.306 248.989 C-304.676 251.849 -308.078 254.663 -311.513 257.446 C-316.631 261.609 -321.604 265.925 -326.575 270.26 C-331.206 274.289 -335.918 278.195 -340.685 282.063 C-348.003 288.053 -348.003 288.053 -351.138 291.071 C-351.138 291.401 -351.138 291.731 -351.138 292.071 C-350.138 292.06 -349.139 292.05 -348.11 292.039 C-260.84 291.209 -165.547 307.683 -92.138 358.071 C-91.489 358.513 -90.841 358.954 -90.173 359.41 C-64.652 376.906 -41.981 398.053 -28.138 426.071 C-27.032 425.135 -25.928 424.197 -24.825 423.258 C-24.21 422.736 -23.595 422.214 -22.962 421.676 C-19.618 418.733 -19.618 418.733 -18.138 417.071 C-18.138 416.411 -18.138 415.751 -18.138 415.071 C-17.478 415.071 -16.818 415.071 -16.138 415.071 C-14.763 413.672 -14.763 413.672 -13.138 411.696 C-10.277 408.323 -7.289 405.174 -4.138 402.071 C-0.552 398.528 2.811 394.895 6.085 391.067 C8.739 388.086 11.592 385.318 14.456 382.54 C17.089 379.839 19.544 377.02 22.015 374.172 C24.949 370.835 27.998 367.612 31.05 364.383 C35.851 359.286 40.628 354.168 45.362 349.008 C48.92 345.134 52.541 341.351 56.296 337.668 C58.024 335.906 59.629 334.068 61.237 332.196 C63.829 329.186 66.535 326.36 69.362 323.571 C72.128 320.843 74.775 318.086 77.3 315.133 C80.018 311.96 82.89 309.007 85.862 306.071 C88.711 303.256 91.468 300.443 94.05 297.383 C98.212 292.506 102.829 288.08 107.381 283.571 C111.152 279.823 114.764 276.022 118.194 271.958 C121.119 268.65 124.317 265.61 127.456 262.508 C129.517 260.421 131.457 258.299 133.362 256.071 C136.846 251.996 140.64 248.278 144.452 244.512 C147.131 241.799 149.608 238.963 152.085 236.067 C154.811 233.006 157.754 230.171 160.671 227.293 C163.283 224.644 165.695 221.859 168.116 219.036 C170.587 216.255 173.244 213.68 175.894 211.071 C177.802 209.132 179.589 207.134 181.362 205.071 C184.379 201.561 187.593 198.32 190.89 195.075 C193.436 192.488 195.783 189.755 198.147 187.004 C199.822 185.116 201.562 183.339 203.362 181.571 C206.353 178.626 209.133 175.577 211.796 172.333 C213.468 170.502 215.046 169.071 216.96 167.528 C220.4 164.601 222.747 162.118 224.862 158.071 C225.009 151.663 221.646 145.664 218.862 140.071 C218.504 139.32 218.145 138.569 217.775 137.796 C211.586 124.942 203.892 113.115 194.862 102.071 C194.456 101.572 194.456 101.572 192.401 99.047 C182.531 87.068 171.941 76.669 159.532 67.335 C157.987 66.165 156.463 64.969 154.94 63.77 C146.377 57.111 137.225 51.527 127.862 46.071 C127.24 45.706 126.618 45.341 125.977 44.965 C87.269 22.534 41.208 11.714 -3.36 12.997 C-5.171 13.045 -6.983 13.075 -8.794 13.083 Z M-357.138 306.071 C-357.217 306.597 -357.217 306.597 -357.618 309.262 C-360.713 328.847 -367.32 348.569 -380.138 364.071 C-380.138 364.731 -380.138 365.391 -380.138 366.071 C-319.168 384.123 -258.024 401.549 -196.687 418.311 C-174.427 424.394 -152.188 430.544 -129.983 436.826 C-128.035 437.377 -126.087 437.927 -124.138 438.476 C-120.51 439.501 -116.882 440.529 -113.255 441.559 C-112.201 441.856 -111.148 442.154 -110.062 442.46 C-90.041 448.168 -90.041 448.168 -87.138 451.071 C-86.987 453.255 -86.916 455.444 -86.888 457.633 C-86.313 467.01 -82.69 471.79 -76.138 478.196 C-60.356 491.448 -37.809 496.445 -17.7 496.383 C-16.658 496.399 -15.616 496.416 -14.542 496.432 C-5.243 496.438 7.449 495.42 14.862 489.071 C16.906 485.873 18.383 482.556 19.862 479.071 C20.862 478.071 20.862 478.071 24.591 477.797 C31.056 477.881 37.023 479.706 43.21 481.446 C44.522 481.806 45.834 482.165 47.146 482.524 C50.674 483.491 54.197 484.472 57.72 485.456 C60.693 486.285 63.667 487.105 66.642 487.925 C87.968 493.805 109.249 499.84 130.508 505.955 C148.997 511.272 167.518 516.469 186.05 521.633 C191.832 523.245 197.615 524.857 203.397 526.469 C204.102 526.666 204.806 526.862 205.532 527.064 C218.289 530.623 231.034 534.226 243.774 537.846 C270.462 545.427 297.198 552.833 323.953 560.174 C329.623 561.73 335.29 563.291 340.958 564.854 C345.103 565.996 349.249 567.135 353.395 568.273 C355.315 568.8 357.234 569.329 359.153 569.859 C361.762 570.579 364.373 571.294 366.983 572.008 C367.365 572.114 367.365 572.114 369.294 572.65 C372.243 573.452 374.791 574.071 377.862 574.071 C376.465 569.233 374.368 564.919 372.13 560.433 C363.725 543.544 354.113 522.705 353.804 503.422 C352.755 499.689 352.413 499.374 349.288 497.43 C347.598 496.533 345.892 495.666 344.175 494.821 C343.219 494.327 342.264 493.833 341.279 493.324 C338.465 491.879 335.638 490.46 332.806 489.047 C330.002 487.639 327.212 486.202 324.421 484.769 C263.703 453.613 200.36 428.681 132.862 417.071 C131.847 416.89 130.831 416.709 129.784 416.523 C101.336 411.636 68.174 411.127 39.862 417.071 C39.011 417.248 38.159 417.425 37.282 417.607 C15.342 422.33 -6.274 429.577 -23.427 444.516 C-26.138 446.071 -26.138 446.071 -29.786 446.125 C-33.138 445.071 -33.138 445.071 -34.88 442.977 C-37.335 437.305 -37.335 437.305 -38.432 434.603 C-47.176 413.216 -63.34 396.338 -81.138 382.071 C-81.896 381.434 -82.654 380.797 -83.435 380.141 C-100.796 365.713 -120.833 354.748 -141.138 345.071 C-141.815 344.748 -142.492 344.424 -143.189 344.091 C-180.83 326.31 -222.528 315.833 -263.513 309.321 C-264.136 309.221 -264.136 309.221 -267.289 308.718 C-285.773 305.911 -304.005 304.758 -322.7 304.865 C-326.058 304.884 -329.416 304.885 -332.774 304.885 C-334.935 304.89 -337.095 304.896 -339.255 304.903 C-340.247 304.904 -341.238 304.905 -342.26 304.906 C-347.324 304.941 -352.146 305.204 -357.138 306.071 Z M632.409 296.415 C631.468 297.459 630.537 298.512 629.612 299.571 C629.366 299.846 629.366 299.846 628.123 301.238 C626.694 302.842 625.276 304.454 623.862 306.071 C623.215 306.806 622.568 307.54 621.901 308.297 C620.796 309.558 619.694 310.823 618.597 312.09 C616.59 314.382 614.538 316.631 612.487 318.883 C609.396 322.303 606.438 325.79 603.55 329.383 C599.661 334.195 595.536 338.715 591.311 343.228 C587.345 347.487 583.652 351.92 580.007 356.458 C577.864 359.069 575.639 361.574 573.362 364.071 C570.339 367.391 567.437 370.768 564.612 374.258 C557.236 383.359 549.537 392.194 541.612 400.821 C537.686 405.107 533.993 409.533 530.343 414.055 C527.413 417.618 524.395 421.095 521.362 424.571 C516.072 430.641 510.925 436.809 505.862 443.071 C504.447 444.801 503.03 446.53 501.612 448.258 C500.028 450.195 498.445 452.133 496.862 454.071 C496.372 454.671 495.882 455.27 495.377 455.888 C489.189 463.464 483.048 471.071 477.027 478.781 C472.984 483.946 468.845 489.029 464.698 494.11 C460.75 498.956 456.874 503.853 453.029 508.78 C449.509 513.277 445.914 517.71 442.3 522.133 C437.608 527.883 433.024 533.694 428.522 539.594 C425.332 543.776 422.095 547.922 418.862 552.071 C417.081 554.361 415.299 556.651 413.518 558.942 C412.471 560.289 411.423 561.635 410.375 562.981 C405.536 569.197 400.794 575.453 396.335 581.95 C396.092 582.3 396.092 582.3 394.862 584.071 C394.469 584.822 394.076 585.574 393.671 586.348 C391.288 588.618 389.502 588.388 386.316 588.313 C381.379 587.826 376.66 586.413 371.89 585.098 C370.721 584.784 369.552 584.471 368.348 584.147 C365.163 583.29 361.981 582.424 358.799 581.554 C355.405 580.628 352.007 579.712 348.61 578.795 C342.333 577.1 336.058 575.394 329.785 573.683 C324.47 572.235 319.153 570.797 313.834 569.362 C256.05 553.768 198.435 537.531 140.862 521.178 C124.244 516.458 107.618 511.767 90.989 507.089 C88.979 506.524 86.97 505.958 84.96 505.392 C78.734 503.639 72.506 501.89 66.277 500.148 C61.753 498.884 57.233 497.609 52.717 496.321 C50.018 495.552 47.317 494.791 44.616 494.031 C42.711 493.492 40.809 492.945 38.907 492.398 C37.763 492.077 36.62 491.757 35.442 491.427 C34.434 491.14 33.426 490.853 32.388 490.558 C29.862 490.071 29.862 490.071 26.862 491.071 C26.223 492.123 25.584 493.175 24.925 494.258 C19.157 502.669 7.351 505.295 -2.138 507.071 C-5.143 507.592 -8.092 507.905 -11.138 508.071 C-12.054 508.124 -12.971 508.177 -13.915 508.231 C-39.562 508.975 -67.479 500.907 -87.138 484.071 C-92.312 479.106 -96.736 473.862 -97.359 466.425 C-97.635 463.413 -98.052 460.898 -99.138 458.071 C-101.969 455.835 -105.087 455.343 -108.575 454.633 C-110.821 454.077 -113.065 453.518 -115.31 452.958 C-116.566 452.66 -117.822 452.363 -119.116 452.057 C-123.306 451.049 -127.448 449.896 -131.591 448.715 C-132.352 448.499 -133.112 448.282 -133.896 448.059 C-135.519 447.597 -137.143 447.134 -138.766 446.672 C-157.951 441.23 -177.209 436.048 -196.452 430.815 C-245.484 417.479 -294.355 403.647 -343.127 389.389 C-343.864 389.174 -344.601 388.959 -345.36 388.737 C-348.956 387.685 -352.553 386.631 -356.147 385.573 C-362.586 383.679 -369.028 381.813 -375.499 380.032 C-376.62 379.719 -377.741 379.406 -378.896 379.083 C-380.955 378.511 -383.017 377.949 -385.082 377.402 C-385.978 377.151 -386.874 376.9 -387.797 376.641 C-388.183 376.537 -388.183 376.537 -390.137 376.009 C-392.685 374.814 -393.685 373.456 -395.138 371.071 C-395.963 366.836 -394.994 364.48 -392.731 360.985 C-391.714 359.545 -390.683 358.116 -389.638 356.696 C-389.113 355.96 -388.588 355.224 -388.048 354.465 C-386.757 352.658 -385.453 350.861 -384.138 349.071 C-388.426 349.071 -390.403 351.597 -393.45 354.321 C-394.704 355.42 -395.958 356.519 -397.212 357.618 C-397.534 357.902 -397.534 357.902 -399.167 359.342 C-402.912 362.626 -406.72 365.837 -410.518 369.06 C-412.068 370.385 -413.604 371.727 -415.138 373.071 C-415.95 373.762 -416.762 374.453 -417.599 375.165 C-419.138 377.071 -419.138 377.071 -418.962 379.097 C-418.69 379.749 -418.418 380.4 -418.138 381.071 C-415.197 382.265 -412.458 383.15 -409.407 383.969 C-408.468 384.236 -407.529 384.503 -406.562 384.778 C-403.363 385.684 -400.157 386.564 -396.95 387.446 C-394.642 388.094 -392.334 388.743 -390.027 389.394 C-385.577 390.647 -381.126 391.893 -376.672 393.132 C-367.784 395.604 -358.907 398.115 -350.033 400.637 C-308.809 412.354 -267.517 423.803 -226.146 434.987 C-222.084 436.085 -218.022 437.185 -213.961 438.286 C-206.497 440.308 -199.032 442.327 -191.567 444.345 C-189.592 444.879 -187.616 445.413 -185.641 445.948 C-171.925 449.66 -158.2 453.33 -144.442 456.883 C-142.136 457.482 -139.829 458.082 -137.523 458.681 C-133.254 459.79 -128.98 460.882 -124.704 461.963 C-122.813 462.452 -120.923 462.943 -119.032 463.434 C-118.181 463.644 -117.33 463.853 -116.454 464.069 C-111.994 465.246 -109.035 466.243 -106.138 470.071 C-105.45 472.149 -105.45 472.149 -105.138 474.321 C-103.142 484.742 -97.253 492.395 -88.613 498.43 C-74.751 507.6 -59.374 512.983 -43.138 516.071 C-42.602 516.183 -42.602 516.183 -39.892 516.75 C-22.333 520.016 -0.532 520.174 14.862 510.071 C16.665 508.547 18.368 507.011 19.999 505.305 C22.879 503.397 25.436 503.333 28.862 503.071 C31.579 503.63 34.024 504.258 36.644 505.106 C37.391 505.335 38.139 505.564 38.91 505.8 C40.537 506.3 42.162 506.807 43.786 507.32 C46.439 508.157 49.096 508.978 51.755 509.794 C55.555 510.961 59.352 512.134 63.148 513.311 C71.229 515.808 79.337 518.213 87.445 520.618 C92.348 522.072 97.25 523.531 102.151 524.989 C103.208 525.303 104.264 525.617 105.352 525.941 C112.324 528.015 119.294 530.097 126.262 532.183 C162.989 543.178 199.762 553.971 236.663 564.368 C237.337 564.558 238.01 564.748 238.704 564.943 C240.056 565.324 241.409 565.705 242.761 566.086 C261.609 571.395 280.419 576.837 299.231 582.272 C322.852 589.096 346.496 595.845 370.163 602.51 C372.716 603.23 375.269 603.951 377.821 604.674 C381.574 605.738 385.33 606.795 389.085 607.852 C390.228 608.177 391.372 608.502 392.55 608.837 C393.075 608.984 393.075 608.984 395.734 609.729 C396.194 609.859 396.194 609.859 398.526 610.517 C400.862 611.071 400.862 611.071 403.862 611.071 C405.174 609.78 405.174 609.78 406.507 607.95 C406.759 607.61 406.759 607.61 408.038 605.889 C408.308 605.517 408.308 605.517 409.675 603.633 C410.837 602.07 412.003 600.509 413.171 598.95 C413.775 598.143 414.38 597.336 415.002 596.505 C418.513 591.911 422.223 587.483 425.928 583.046 C430.018 578.137 433.96 573.13 437.862 568.071 C438.982 566.629 440.101 565.188 441.222 563.747 C441.774 563.036 442.327 562.324 442.896 561.592 C445.882 557.75 448.872 553.91 451.862 550.071 C452.358 549.434 452.854 548.798 453.365 548.142 C458.599 541.427 463.905 534.782 469.3 528.196 C474.223 522.183 478.925 516.038 483.551 509.794 C487.324 504.726 491.289 499.88 495.37 495.055 C499.524 490.08 503.491 484.959 507.476 479.849 C509.745 476.939 512.022 474.036 514.3 471.133 C514.751 470.559 515.202 469.984 515.667 469.392 C519.543 464.461 523.46 459.564 527.386 454.672 C530.249 451.1 533.089 447.512 535.905 443.903 C541.051 437.308 546.332 430.836 551.666 424.392 C555.792 419.398 559.833 414.348 563.817 409.241 C567.151 404.968 570.529 400.733 573.925 396.508 C577.69 391.821 581.401 387.099 585.05 382.321 C589.527 376.463 594.173 370.76 598.862 365.071 C600.992 362.47 603.116 359.865 605.237 357.258 C605.792 356.576 606.348 355.894 606.92 355.191 C610.491 350.792 614.005 346.353 617.487 341.883 C621.52 336.709 625.688 331.671 629.949 326.683 C633.301 322.755 636.537 318.749 639.737 314.696 C641.397 312.645 643.081 310.633 644.8 308.633 C645.306 308.043 645.813 307.453 646.335 306.844 C647.338 305.679 648.346 304.517 649.358 303.36 C652.862 299.29 652.862 299.29 652.862 297.071 C650.425 296.567 647.988 296.068 645.55 295.571 C644.86 295.428 644.169 295.285 643.458 295.137 C635.447 293.512 635.447 293.512 632.409 296.415 Z " transform="translate(504.1376953125,430.92919921875)"/>
    <path d="M0 0 C36.071 9.35 68.052 28.591 94.741 54.441 C96.084 55.74 97.444 57.021 98.805 58.302 C109.386 68.484 124.548 84.3 128.168 98.821 C127.168 101.196 127.168 101.196 125.168 102.821 C122.247 103.185 122.247 103.185 119.168 102.821 C117.403 101.091 117.403 101.091 115.918 98.634 C88.336 55.721 43.83 22.368 -6.29 11.04 C-10.816 10.112 -15.344 9.23 -19.898 8.455 C-20.893 8.281 -21.888 8.106 -22.914 7.927 C-23.792 7.784 -24.671 7.641 -25.577 7.494 C-28.141 6.729 -29.214 5.932 -30.832 3.821 C-31.25 1.033 -31.199 -0.513 -29.832 -2.991 C-22.167 -7.542 -7.938 -1.948 0 0 Z " transform="translate(552.83154296875,479.1787109375)"/>
    <path d="M0 0 C29.598 0.602 63.191 23.606 84.184 43.215 C85.729 44.656 87.306 46.066 88.91 47.441 C98.625 55.801 113.948 69.791 117.332 82.5 C117.5 85.375 117.5 85.375 115.5 88.375 C113.089 89.42 111.993 89.563 109.523 88.621 C107.181 87.179 106.384 85.985 105 83.625 C87.017 55.476 58.305 35.303 28.5 21.375 C27.35 20.83 26.2 20.284 25.016 19.723 C17.655 16.39 10.304 14.033 2.452 12.198 C-0.81 11.388 -3.11 10.749 -5.566 8.395 C-6.5 6.375 -6.5 6.375 -5.75 3.688 C-3.988 0.427 -3.988 0.427 0 0 Z " transform="translate(538.5,517.625)"/>
    <path d="M0 0 C1.186 -0.003 2.372 -0.006 3.594 -0.009 C4.876 0.013 6.157 0.036 7.477 0.059 C7.807 0.062 7.807 0.062 9.479 0.079 C79.425 0.82 79.425 0.82 91.102 12.496 C90.89 16.232 90.674 18.736 88.394 21.764 C86.102 23.496 86.102 23.496 83.534 23.539 C82.57 23.327 81.606 23.116 80.613 22.898 C80.069 22.787 80.069 22.787 77.317 22.222 C76.153 21.962 74.988 21.702 73.789 21.434 C71.345 20.933 68.899 20.437 66.453 19.945 C65.222 19.696 63.992 19.446 62.724 19.189 C57.394 18.17 52.046 17.423 46.664 16.746 C45.774 16.631 44.883 16.516 43.966 16.398 C34.811 15.262 25.7 14.483 16.473 14.32 C15.171 14.296 13.87 14.273 12.529 14.248 C10.515 14.216 8.501 14.183 6.486 14.17 C4.502 14.155 2.519 14.113 0.535 14.07 C-0.63 14.056 -1.794 14.041 -2.994 14.026 C-5.898 13.496 -5.898 13.496 -7.742 11.616 C-9.115 9.099 -9.826 7.38 -9.898 4.496 C-6.91 0.593 -4.827 -0.009 0 0 Z " transform="translate(857.8984375,556.50390625)"/>
    <path d="M0 0 C2.887 0.363 2.887 0.363 4.887 2.363 C4.726 8.02 3.325 10.651 -0.613 14.613 C-4.082 18.224 -7.408 21.84 -10.551 25.738 C-22.105 40.029 -34.212 53.88 -46.257 67.757 C-50.387 72.517 -54.492 77.298 -58.587 82.087 C-61.748 85.781 -64.929 89.455 -68.122 93.122 C-72.391 98.027 -76.631 102.944 -80.738 107.988 C-81.088 108.415 -81.088 108.415 -82.859 110.574 C-84.567 112.687 -86.238 114.816 -87.898 116.965 C-88.865 118.181 -89.833 119.398 -90.801 120.613 C-91.241 121.199 -91.68 121.785 -92.133 122.389 C-93.438 124.004 -93.438 124.004 -96.113 126.363 C-99.32 126.41 -99.32 126.41 -102.113 125.363 C-104.113 122.363 -104.113 122.363 -104.082 120.09 C-102.731 116.286 -100.281 113.679 -97.613 110.738 C-96.507 109.485 -95.401 108.231 -94.297 106.977 C-93.751 106.361 -93.206 105.746 -92.644 105.112 C-90.591 102.767 -88.63 100.353 -86.676 97.926 C-81.521 91.581 -76.14 85.438 -70.773 79.273 C-64.584 72.151 -58.421 65.013 -52.488 57.676 C-48.689 52.992 -44.669 48.554 -40.586 44.117 C-37.366 40.531 -34.354 36.796 -31.328 33.047 C-29.157 30.416 -26.911 27.884 -24.613 25.363 C-21.48 21.924 -18.481 18.415 -15.551 14.801 C-14.811 13.896 -14.071 12.991 -13.309 12.059 C-11.853 10.272 -10.41 8.475 -8.98 6.668 C-8.302 5.846 -7.624 5.023 -6.926 4.176 C-6.334 3.44 -5.742 2.704 -5.133 1.945 C-3.113 0.363 -3.113 0.363 0 0 Z " transform="translate(1094.11328125,714.63671875)"/>
    <path d="M0 0 C0.706 0.057 1.413 0.114 2.14 0.172 C10.411 0.877 18.646 1.908 26.871 3.012 C27.687 3.12 28.503 3.229 29.343 3.341 C75.363 9.502 120.463 19.603 162.934 38.824 C163.823 39.221 164.712 39.619 165.628 40.028 C196.331 53.796 196.331 53.796 201.934 60.824 C201.621 64.512 201.621 64.512 200.934 67.824 C197.474 68.8 195.21 69.338 191.822 67.975 C189.393 66.599 187.039 65.136 184.684 63.637 C132.142 32.01 66.335 18.511 5.869 12.288 C5.045 12.203 4.22 12.117 3.37 12.029 C1.795 11.871 0.219 11.719 -1.357 11.577 C-4.992 11.216 -6.967 10.89 -10.066 8.824 C-10.453 5.793 -10.657 3.754 -8.985 1.122 C-5.99 -0.904 -3.552 -0.297 0 0 Z " transform="translate(204.06640625,765.17578125)"/>
    <path d="M0 0 C5.638 0.15 11.153 0.927 16.719 1.801 C17.838 1.976 18.956 2.151 20.109 2.331 C63.214 9.363 104.758 23.226 145.618 38.329 C147.874 39.157 150.136 39.964 152.402 40.762 C153.579 41.187 154.756 41.612 155.969 42.051 C156.915 42.387 157.861 42.724 158.836 43.07 C161.463 44.429 162.624 45.687 164.094 48.238 C163.853 51.609 163.506 52.826 161.094 55.238 C155.558 54.913 151.01 53.691 145.816 51.684 C145.141 51.426 144.466 51.169 143.771 50.904 C142.32 50.352 140.871 49.796 139.424 49.237 C135.504 47.727 131.57 46.257 127.637 44.785 C126.833 44.484 126.03 44.183 125.202 43.874 C85.677 29.123 44.98 17.683 3.091 12.225 C-0.565 11.726 -2.786 11.318 -5.906 9.238 C-7.217 6.523 -6.953 5.385 -6.031 2.488 C-3.906 0.238 -3.906 0.238 0 0 Z " transform="translate(591.90625,873.76171875)"/>
    <path d="M0 0 C6.613 0.991 12.81 3.547 19.005 5.975 C21.119 6.799 23.243 7.596 25.369 8.391 C26.729 8.915 28.087 9.441 29.445 9.969 C30.666 10.439 31.886 10.909 33.144 11.394 C36.579 13.193 38.274 14.759 40.301 18.047 C39.678 20.54 39.132 22.215 37.301 24.047 C31.779 23.628 27.3 22.519 22.133 20.43 C21.49 20.172 20.847 19.914 20.185 19.648 C18.84 19.107 17.496 18.56 16.155 18.009 C14.112 17.171 12.063 16.348 10.014 15.527 C-1.755 10.768 -1.755 10.768 -5.699 8.047 C-6.699 5.547 -6.699 5.547 -6.699 3.047 C-4.428 0.087 -3.962 0.05 0 0 Z " transform="translate(772.69921875,926.953125)"/>
  </g>
  <g fill="#d91510">
    <path d="M0 0 C2 1.562 2 1.562 3 4 C2.564 9.262 1.507 13.823 -0.062 18.875 C-6.144 41.091 -2.021 63.397 8.944 83.16 C15.166 94.003 22.964 103.878 30.883 113.523 C42.745 128.008 52.638 143.249 61 160 C61.576 161.15 62.152 162.3 62.746 163.484 C63.16 164.315 63.574 165.145 64 166 C64.1 165.731 64.1 165.731 64.607 164.37 C70.456 148.832 77.146 135.731 88 123 C88.625 122.241 89.25 121.481 89.895 120.699 C102.118 106.285 102.118 106.285 110.16 104.168 C113.722 103.957 115.21 104.848 118 107 C119.25 109.5 119.003 110.918 118.809 113.699 C118.779 114.177 118.779 114.177 118.629 116.592 C118.566 117.614 118.503 118.635 118.438 119.688 C117.03 147.37 127.044 167.333 143 189 C163.603 217.115 181.037 246.674 176 283 C173.89 295.291 170.48 306.794 165 318 C176.403 313.837 182.216 308.893 187.504 297.863 C189.943 292.279 192.141 286.65 194.2 280.919 C201.596 260.428 201.596 260.428 209 256 C212.562 255.562 212.562 255.562 216 256 C219.784 259.658 220.152 263.652 220.24 268.75 C220.28 278.45 219.098 287.499 217.351 297.021 C214.77 311.588 217.214 324.739 221.879 338.539 C223.8 344.471 224.13 349.63 224.062 355.812 C224.058 356.601 224.053 357.389 224.049 358.201 C224.037 360.134 224.019 362.067 224 364 C233.954 360.972 242.043 357.912 248 349 C255.616 334.503 255.344 319.298 255.381 303.361 C255.44 288.211 257.031 273.278 263.188 259.25 C263.482 258.561 263.776 257.872 264.079 257.162 C270.49 242.699 280.447 229.737 292 219 C292.825 218.196 293.65 217.391 294.5 216.562 C297.87 214.456 300.1 214.494 304 215 C305.701 216.104 305.701 216.104 307 218 C307.277 221.04 307.277 221.04 307.152 224.766 C307.124 226.146 307.096 227.526 307.068 228.906 C307.007 231.058 306.939 233.21 306.863 235.361 C306.431 248.639 308.011 260.679 314.625 272.5 C314.962 273.11 315.299 273.72 315.646 274.348 C318.208 278.883 321.105 283.154 324.062 287.438 C327.569 292.53 330.5 297.653 333 303.312 C333.279 303.934 333.557 304.555 333.844 305.195 C340.746 321.594 339.9 341.499 334 358 C333.77 358.672 333.539 359.345 333.302 360.038 C329.118 372.146 329.118 372.146 325.473 374.93 C322.432 376.246 321.087 376.137 318 375 C316.188 373.812 316.188 373.812 315 372 C314.395 366.491 316.168 362.642 318.375 357.75 C324.591 343.206 327.005 327.142 321 312 C317.369 303.588 312.872 296.147 307.706 288.613 C297.654 273.79 292.703 258.662 291 241 C273.267 262.871 269.689 286.872 269.619 314.161 C269.546 331.238 267.208 348.263 256.688 362.375 C250.109 368.8 242.339 372.366 234 376 C225.599 379.865 220.775 383.94 215.648 391.758 C214 394 214 394 211 396 C207.438 395.812 207.438 395.812 204 395 C201.618 391.427 201.272 389.123 202 385 C203.115 381.956 204.39 379.01 205.688 376.039 C212.799 359.573 209.465 346.291 204 330.023 C200.978 319.942 201.729 309.417 202 299 C201.753 299.657 201.505 300.313 201.25 300.99 C196.488 313.311 189.389 322.999 177.198 328.867 C172.038 331.028 167.369 331.489 161.812 331.438 C161.032 331.457 160.251 331.477 159.447 331.498 C155.638 331.495 153.379 331.197 149.949 329.41 C148 327 148 327 147.453 323.758 C148.113 319.22 149.649 315.905 151.75 311.875 C155.28 304.743 158.054 297.744 160 290 C160.224 289.149 160.449 288.298 160.68 287.422 C166.509 261.392 157.691 236.903 144 215 C139.3 207.868 134.253 200.97 129.105 194.156 C113.635 173.617 104.148 153.041 103 127 C80.412 149.694 74.483 178.955 70.678 209.595 C68.506 226.699 63.665 245.253 50.414 257.363 C47.32 259.461 45.667 259.624 42 259 C39.562 257.438 39.562 257.438 38 255 C37.793 251.41 38.131 249.078 40.43 246.227 C40.72 245.921 40.72 245.921 42.188 244.375 C53.83 231.991 55.77 214.814 55.344 198.605 C53.921 168.827 37.062 143.569 18.688 121.25 C-1 97.256 -17.241 72.965 -17.125 40.938 C-17.129 39.862 -17.133 38.786 -17.137 37.678 C-17.136 37.158 -17.136 37.158 -17.133 34.527 C-17.132 33.586 -17.131 32.645 -17.129 31.676 C-17.001 29.023 -16.59 26.586 -16 24 C-18.699 26.297 -21.359 28.636 -24 31 C-24.318 31.284 -24.318 31.284 -25.926 32.719 C-53.67 58.912 -60.66 93.842 -62.029 130.382 C-63.054 156.965 -69.225 180.857 -86 202 C-86.371 202.516 -86.371 202.516 -88.25 205.125 C-95.939 213.164 -105.516 220.604 -117 221 C-128.052 219.121 -134.447 211.091 -140.707 202.418 C-154.45 182.288 -160.767 160.76 -165 137 C-179.724 165.83 -183.298 192.292 -182.904 224.412 C-182.553 255.123 -186.271 288.57 -208.168 312.246 C-213.202 317.066 -217.64 320.72 -224.75 321.312 C-229.276 321.197 -232.59 319.991 -236 317 C-249.309 302.212 -255.5 281.369 -258 262 C-271.665 284.064 -280.349 306.624 -279.992 332.848 C-279.975 335.169 -279.958 337.49 -279.941 339.811 C-279.911 343.428 -279.875 347.046 -279.829 350.664 C-279.513 376.616 -279.513 376.616 -283 389 C-283.11 389.413 -283.11 389.413 -283.665 391.501 C-287.869 406.249 -295.239 419.957 -308 429 C-313.171 431.557 -317.476 431.404 -323 430 C-335.301 424.13 -340.838 409.994 -345.308 397.994 C-346.338 395.028 -347.183 392.032 -348 389 C-350.623 391.623 -351.596 394.591 -352.875 398 C-353.007 398.351 -353.007 398.351 -353.673 400.125 C-356.596 408.22 -358.441 416.547 -360 425 C-360.1 425.53 -360.1 425.53 -360.605 428.215 C-361.655 438.282 -360.781 447.707 -359 457.625 C-356.288 474.372 -355.248 487.67 -361.509 503.71 C-364.279 510.882 -364.973 516.865 -362.875 524.312 C-362 528 -362 528 -362.438 530.438 C-365.03 533.03 -367.436 532.94 -371 533 C-374.076 532.021 -375.444 531.04 -376.973 528.18 C-380.785 518.285 -379.25 509.126 -375.562 499.5 C-371.171 487.901 -370.463 478.601 -372.875 466.438 C-378.984 432.592 -372.308 403.625 -357.875 372.75 C-357.455 371.844 -357.035 370.938 -356.603 370.004 C-352.632 361.706 -352.632 361.706 -349 359 C-345.5 358.438 -345.5 358.438 -342 359 C-337.038 363.371 -336.659 369.249 -335.562 375.438 C-332.743 390.011 -329.287 406.466 -318 417 C-311.216 415.355 -307.589 409.595 -304.137 403.957 C-294.656 386.315 -294.52 369.189 -294.938 349.625 C-295.315 330.597 -295.13 312.319 -289.375 294 C-289.124 293.187 -288.873 292.373 -288.615 291.535 C-282.62 272.953 -271.794 249.196 -255 238 C-251.562 237.562 -251.562 237.562 -248 238 C-244.91 240.792 -243.766 243.014 -243.496 247.082 C-243.462 248.659 -243.443 250.236 -243.438 251.812 C-242.937 269.207 -239.952 292.35 -227.125 305.25 C-226.774 305.539 -226.774 305.539 -225 307 C-213.266 297.47 -206.638 286.108 -202.25 271.688 C-202.051 271.049 -201.853 270.411 -201.648 269.754 C-196.659 252.317 -197.633 233.907 -197.544 215.962 C-197.435 197.558 -196.937 179.628 -191.312 161.938 C-191.058 161.119 -190.803 160.301 -190.54 159.458 C-184.873 141.872 -176.533 123.995 -163 111 C-160.159 109.58 -158.145 109.685 -155 110 C-152.149 112.152 -151.121 113.385 -150.426 116.922 C-150.407 117.483 -150.407 117.483 -150.312 120.32 C-150.256 121.569 -150.2 122.818 -150.142 124.105 C-150.13 124.434 -150.13 124.434 -150.073 126.095 C-149.05 154.421 -141.545 181.655 -122 203 C-121.678 203.39 -121.678 203.39 -120.047 205.363 C-118 207 -118 207 -115.547 206.902 C-100.891 201.71 -92.652 189.333 -86 176 C-78.959 160.419 -77.034 145.002 -76.562 128.125 C-75.136 85.876 -64.638 53.077 -35 22 C-34.221 21.157 -33.443 20.314 -32.641 19.445 C-11.607 -2.647 -11.607 -2.647 0 0 Z " transform="translate(560,149)"/>
    <path d="M0 0 C3.375 0.938 3.375 0.938 5.375 3.938 C5.63 6.351 5.63 6.351 5.648 9.207 C5.666 10.254 5.684 11.301 5.702 12.38 C5.71 12.936 5.71 12.936 5.75 15.75 C6.238 32.644 10.195 44.293 19.688 58.375 C29.696 73.292 32.65 86.975 29.75 104.773 C27.446 113.764 23.196 126.336 16.316 132.902 C13.38 134.468 11.492 133.866 8.375 132.938 C6.438 131.75 6.438 131.75 5.375 129.938 C5.784 125.031 7.558 121.139 9.75 116.812 C16.105 103.672 18.783 90.87 14.117 76.684 C11.286 69.962 6.617 64.1 2.371 58.223 C-0.014 54.904 -1.946 51.66 -3.625 47.938 C-3.458 56.247 -1.808 62.95 1.414 70.613 C2.537 74.498 2.318 77.029 1.375 80.938 C-0.625 82.938 -0.625 82.938 -4 83.312 C-8.312 82.866 -8.95 82.215 -11.625 78.938 C-13.074 75.879 -13.074 75.879 -14.312 72.5 C-14.521 71.944 -14.521 71.944 -15.574 69.129 C-22.165 49.113 -16.839 25.882 -9.188 6.941 C-6.786 2.325 -5.391 -0.093 0 0 Z " transform="translate(937.625,464.0625)"/>
    <path d="M0 0 C3.125 1.125 3.125 1.125 5.125 4.125 C5.137 6.91 5.137 6.91 4.812 10.188 C4.758 10.775 4.758 10.775 4.484 13.75 C4.28 15.668 4.067 17.586 3.828 19.5 C0.212 49.277 7.226 74.134 19.841 100.872 C37.441 138.321 32.605 171.081 20.001 209.244 C18.363 214.629 17.943 219.64 17.938 225.25 C17.925 225.965 17.913 226.681 17.9 227.418 C17.89 231.203 17.974 232.899 20.125 236.125 C25.524 235.798 28.629 232.967 32.125 229.125 C38.813 220.769 41.176 210.866 44.146 200.782 C48.266 186.966 53.613 173.466 66.125 165.125 C69.625 165.188 69.625 165.188 73.125 166.125 C76.851 170.47 76.418 174.664 76.188 180.062 C75.649 193.683 78.351 205.929 82.625 218.812 C86.34 230.118 89.533 240.896 89.438 252.875 C89.432 253.645 89.426 254.415 89.42 255.209 C89.144 268.489 85.202 280.643 80.851 293.054 C79.816 296.008 78.811 298.971 77.812 301.938 C77.507 302.831 77.201 303.724 76.887 304.645 C71.53 322.09 76.591 338.906 84.482 354.646 C86.961 359.816 87.976 364.384 87.125 370.125 C85.562 372.75 85.562 372.75 83.125 374.125 C76.911 373.911 76.911 373.911 74.125 371.125 C73.631 369.271 73.631 369.271 73.246 367.051 C72.229 362.087 70.367 357.863 68.188 353.312 C64.993 346.368 62.415 339.703 61.125 332.125 C60.973 331.263 60.821 330.4 60.664 329.512 C58.716 314.902 62.986 301.118 67.688 287.5 C68.453 285.245 69.214 282.99 69.97 280.732 C70.436 279.345 70.908 277.961 71.386 276.578 C78.374 256.023 73.389 234.535 66.32 214.802 C64.048 208.367 62.578 201.787 61.125 195.125 C60.894 195.87 60.664 196.614 60.426 197.381 C48.699 234.85 48.699 234.85 35.625 244.812 C34.872 245.394 34.119 245.975 33.344 246.574 C27.419 250.715 22.262 250.863 15.125 250.125 C9.204 247.649 6.55 242.853 4.125 237.125 C-0.18 219.96 7.071 201.598 12.307 185.423 C22.478 153.622 16.236 125.849 2.062 96.625 C-1.977 88.27 -5.415 80.101 -7.875 71.125 C-8.028 70.58 -8.028 70.58 -8.801 67.82 C-11.828 55.166 -11.62 42.071 -11.875 29.125 C-16.15 34.436 -20.129 39.72 -23.438 45.688 C-23.626 46.028 -23.626 46.028 -24.583 47.752 C-35.595 68.157 -37.828 88.022 -36.57 110.883 C-35.242 135.051 -37.553 157.243 -54.188 176.312 C-60.165 182.645 -66.518 188.443 -73.562 193.562 C-77.858 196.799 -80.584 200.578 -83.465 205.086 C-84.875 207.125 -84.875 207.125 -86.875 208.125 C-90.188 208.5 -90.188 208.5 -93.875 208.125 C-103.564 200.172 -103.716 184.864 -104.875 173.125 C-120.775 195.679 -127.918 217.466 -128.441 245.205 C-128.471 246.314 -128.501 247.424 -128.531 248.566 C-128.55 249.564 -128.569 250.561 -128.588 251.588 C-128.875 254.125 -128.875 254.125 -130.875 257.125 C-133.688 258.062 -133.688 258.062 -136.875 258.125 C-139.614 256.482 -141.462 255.362 -142.497 252.262 C-147.374 224.705 -137.203 194.44 -121.684 171.949 C-116.827 165.302 -111.536 159.1 -105.875 153.125 C-105.189 152.392 -104.503 151.658 -103.797 150.902 C-101.183 148.485 -99.406 148.197 -95.875 148.125 C-91.31 150.255 -91.31 150.255 -89.875 153.125 C-89.814 154.664 -89.815 156.206 -89.848 157.746 C-89.854 158.212 -89.854 158.212 -89.889 160.568 C-89.905 161.556 -89.921 162.544 -89.938 163.562 C-90.012 171.279 -89.887 178.616 -87.875 186.125 C-85.875 186.125 -85.875 186.125 -84.5 184.875 C-83.964 184.298 -83.428 183.72 -82.875 183.125 C-80.001 180.155 -77.001 177.552 -73.75 175 C-59.881 164.043 -53.062 150.594 -50.875 133.125 C-50.677 129.134 -50.731 125.169 -50.82 121.176 C-50.846 118.923 -50.87 116.669 -50.895 114.416 C-50.944 110.932 -51 107.449 -51.067 103.965 C-51.411 84.828 -49.674 68.849 -41.875 51.125 C-41.395 50.031 -40.916 48.936 -40.422 47.809 C-34.372 34.901 -15.921 0.514 0 0 Z " transform="translate(844.875,523.875)"/>
  </g>
</svg>
