<?xml version="1.0" encoding="UTF-8"?>
<!-- Generator: visioncortex VTracer 0.6.12 -->
<svg version="1.1" xmlns="http://www.w3.org/2000/svg" width="1024" height="1024" viewBox="0 0 1375 1375" fill="none">
<path d="M0 0 C0.514 -0.003 0.514 -0.003 3.115 -0.019 C5.287 -0.026 7.459 -0.023 9.631 -0.01 C12.957 0.004 16.28 -0.03 19.605 -0.068 C21.716 -0.069 23.827 -0.067 25.938 -0.062 C26.435 -0.069 26.435 -0.069 28.952 -0.103 C32.938 -0.049 35.747 0.039 39.021 2.433 C41.1 6.933 41.634 11.462 42.172 16.336 C42.299 17.372 42.427 18.408 42.558 19.476 C42.961 22.775 43.34 26.077 43.719 29.379 C43.988 31.621 44.259 33.862 44.531 36.104 C45.195 41.589 45.837 47.077 46.469 52.566 C47.227 52.622 47.984 52.677 48.765 52.735 C49.758 52.814 50.751 52.894 51.773 52.977 C52.758 53.053 53.743 53.129 54.757 53.207 C57.948 53.63 59.994 54.504 62.469 56.566 C64.243 60.116 63.568 64.285 63.531 68.191 C63.527 69.089 63.522 69.986 63.518 70.91 C63.506 73.129 63.488 75.348 63.469 77.566 C64.589 77.52 65.709 77.474 66.863 77.426 C68.321 77.39 69.779 77.354 71.281 77.316 C72.731 77.27 74.182 77.224 75.676 77.176 C76.302 77.24 76.302 77.24 79.469 77.566 C82.947 82.205 82.802 83.692 82.656 89.316 C82.629 90.673 82.602 92.029 82.574 93.426 C82.557 93.944 82.557 93.944 82.469 96.566 C83.361 96.52 84.253 96.474 85.172 96.426 C86.342 96.39 87.513 96.354 88.719 96.316 C89.879 96.27 91.039 96.224 92.234 96.176 C95.469 96.566 95.469 96.566 97.875 98.066 C100.188 101.695 99.856 104.561 99.719 108.816 C99.683 110.265 99.647 111.714 99.609 113.207 C99.586 113.761 99.586 113.761 99.469 116.566 C100.794 116.52 102.119 116.474 103.484 116.426 C105.229 116.388 106.974 116.352 108.719 116.316 C109.591 116.283 110.464 116.249 111.363 116.215 C115.099 116.158 117.826 116.177 121.066 118.141 C122.968 121.43 122.763 123.855 122.656 127.629 C122.805 131.41 122.805 131.41 123.469 134.566 C127.781 136.629 127.781 136.629 132.469 137.566 C136.185 141.004 136.767 143.675 137.469 148.566 C138.794 148.532 140.119 148.497 141.484 148.461 C143.229 148.433 144.974 148.405 146.719 148.379 C147.591 148.354 148.464 148.329 149.363 148.303 C154.516 148.244 156.205 148.369 160.469 151.566 C161.848 155.703 161.591 159.734 161.566 164.047 C161.565 164.975 161.564 165.903 161.562 166.859 C161.557 169.824 161.544 172.789 161.531 175.754 C161.526 177.764 161.522 179.773 161.518 181.783 C161.507 186.711 161.489 191.639 161.469 196.566 C162.866 196.52 164.263 196.474 165.703 196.426 C167.542 196.388 169.38 196.352 171.219 196.316 C172.139 196.283 173.06 196.249 174.008 196.215 C177.722 196.161 180.738 196.194 184.085 197.901 C186.333 202.232 185.955 206.698 185.859 211.457 C185.857 211.987 185.857 211.987 185.842 214.668 C185.82 218.052 185.77 221.434 185.719 224.816 C185.699 227.111 185.68 229.405 185.664 231.699 C185.62 237.322 185.551 242.944 185.469 248.566 C186.17 248.54 186.87 248.514 187.593 248.487 C190.78 248.383 193.968 248.318 197.156 248.254 C197.708 248.233 197.708 248.233 200.498 248.127 C201.565 248.111 202.631 248.095 203.73 248.078 C204.71 248.052 205.689 248.026 206.698 247.999 C210.684 248.815 211.977 250.372 214.469 253.566 C215.084 257.664 215.084 257.664 215.07 262.634 C215.074 263.549 215.079 264.463 215.083 265.406 C215.091 268.473 215.064 271.538 215.036 274.605 C215.035 276.802 215.036 279 215.039 281.198 C215.04 287.167 215.011 293.135 214.976 299.104 C214.944 305.34 214.942 311.577 214.936 317.814 C214.92 329.625 214.879 341.436 214.829 353.247 C214.773 366.693 214.745 380.139 214.72 393.585 C214.668 421.246 214.58 448.906 214.469 476.566 C214.928 476.556 214.928 476.556 217.251 476.503 C221.407 476.42 225.562 476.368 229.719 476.316 C231.164 476.283 232.609 476.249 234.098 476.215 C235.483 476.202 236.869 476.189 238.297 476.176 C239.575 476.155 240.852 476.134 242.169 476.112 C245.469 476.566 245.469 476.566 247.87 478.294 C250.34 481.804 250.222 485.372 250.469 489.566 C251.719 489.56 252.968 489.553 254.256 489.546 C266.041 489.485 277.827 489.44 289.612 489.411 C295.671 489.395 301.73 489.374 307.789 489.34 C313.637 489.307 319.486 489.29 325.334 489.282 C327.564 489.276 329.794 489.265 332.024 489.249 C335.15 489.227 338.276 489.224 341.403 489.226 C341.862 489.22 341.862 489.22 344.188 489.193 C349.609 489.219 353.728 489.873 358.469 492.566 C359.646 496.098 359.589 498.88 359.582 502.608 C359.582 504.069 359.582 505.531 359.582 507.036 C359.577 508.618 359.572 510.199 359.566 511.828 C359.565 513.444 359.564 515.06 359.562 516.725 C359.558 521.021 359.548 525.317 359.537 529.612 C359.527 533.996 359.523 538.38 359.518 542.764 C359.507 551.365 359.49 559.966 359.469 568.566 C360.608 568.564 361.748 568.561 362.922 568.558 C390.63 568.492 418.337 568.442 446.045 568.411 C459.445 568.395 472.844 568.374 486.243 568.34 C497.92 568.31 509.596 568.291 521.273 568.284 C527.458 568.28 533.642 568.271 539.827 568.249 C545.645 568.229 551.464 568.223 557.282 568.227 C559.42 568.226 561.558 568.22 563.695 568.209 C566.61 568.194 569.525 568.197 572.439 568.206 C573.256 568.204 573.256 568.204 577.386 568.197 C581.41 568.561 583.353 569.068 586.469 571.566 C588.423 575.474 587.6 580.458 587.589 584.778 C587.59 585.96 587.591 587.142 587.592 588.36 C587.593 592.348 587.588 596.335 587.582 600.323 C587.582 603.17 587.582 606.018 587.583 608.865 C587.583 616.619 587.577 624.373 587.57 632.127 C587.564 640.221 587.563 648.316 587.562 656.41 C587.559 670.004 587.553 683.598 587.544 697.191 C587.535 711.195 587.528 725.199 587.524 739.202 C587.523 740.065 587.523 740.928 587.523 741.816 C587.522 746.144 587.52 750.472 587.519 754.8 C587.509 790.722 587.491 826.644 587.469 862.566 C588.478 862.54 589.487 862.514 590.526 862.487 C595.09 862.383 599.654 862.318 604.219 862.254 C605.807 862.212 607.395 862.17 609.031 862.127 C609.792 862.119 609.792 862.119 613.641 862.078 C615.044 862.052 616.448 862.026 617.894 861.999 C621.469 862.566 621.469 862.566 623.962 864.933 C625.469 867.566 625.469 867.566 625.406 870.191 C624.181 873.296 622.462 875.07 619.469 876.566 C616.792 876.664 614.113 876.692 611.434 876.693 C610.589 876.694 609.743 876.696 608.871 876.698 C606 876.701 603.13 876.698 600.259 876.695 C598.186 876.696 596.112 876.698 594.039 876.7 C588.292 876.705 582.545 876.704 576.798 876.701 C570.564 876.699 564.331 876.704 558.098 876.707 C547.156 876.712 536.215 876.714 525.273 876.713 C509.003 876.711 492.733 876.715 476.463 876.72 C445.72 876.73 414.977 876.733 384.233 876.733 C380.84 876.734 377.447 876.734 374.054 876.734 C373.633 876.734 373.633 876.734 371.502 876.734 C352.862 876.734 334.221 876.736 315.58 876.739 C307.909 876.74 300.239 876.741 292.568 876.742 C292.144 876.742 292.144 876.742 290 876.742 C241.421 876.748 192.842 876.753 144.263 876.752 C142.444 876.752 140.625 876.752 138.806 876.752 C130.594 876.752 122.382 876.752 114.169 876.752 C110.507 876.752 106.845 876.752 103.183 876.752 C101.35 876.752 99.517 876.752 97.684 876.752 C39.711 876.751 -18.262 876.758 -76.235 876.772 C-90.843 876.776 -105.45 876.779 -120.057 876.782 C-120.957 876.783 -121.856 876.783 -122.783 876.783 C-150.489 876.789 -178.196 876.793 -205.902 876.794 C-206.337 876.794 -206.337 876.794 -208.537 876.794 C-227.622 876.795 -246.708 876.796 -265.793 876.795 C-272.621 876.795 -279.45 876.795 -286.279 876.795 C-287.977 876.795 -289.676 876.795 -291.375 876.795 C-318.476 876.795 -345.578 876.801 -372.679 876.809 C-400.724 876.818 -428.768 876.82 -456.813 876.813 C-472.995 876.809 -489.178 876.811 -505.361 876.821 C-516.152 876.827 -526.944 876.826 -537.736 876.818 C-543.897 876.814 -550.057 876.814 -556.218 876.822 C-561.813 876.829 -567.407 876.827 -573.002 876.818 C-575.023 876.816 -577.043 876.818 -579.064 876.823 C-581.792 876.83 -584.519 876.825 -587.246 876.816 C-588.004 876.816 -588.004 876.816 -591.837 876.816 C-595.531 876.566 -595.531 876.566 -599.531 874.566 C-601.056 871.517 -600.767 868.924 -600.531 865.566 C-597.531 862.566 -597.531 862.566 -594.07 862.226 C-593.365 862.234 -593.365 862.234 -589.801 862.273 C-588.276 862.283 -586.752 862.293 -585.182 862.303 C-583.585 862.328 -581.989 862.353 -580.344 862.379 C-578.736 862.392 -577.128 862.406 -575.471 862.42 C-571.491 862.455 -567.511 862.505 -563.531 862.566 C-563.533 861.086 -563.535 859.605 -563.537 858.08 C-563.58 822.954 -563.613 787.828 -563.633 752.702 C-563.636 748.381 -563.638 744.06 -563.641 739.739 C-563.642 738.879 -563.642 738.019 -563.643 737.132 C-563.651 723.193 -563.667 709.254 -563.686 695.315 C-563.704 681.018 -563.715 666.721 -563.719 652.424 C-563.722 644.391 -563.728 636.359 -563.743 628.326 C-563.756 620.771 -563.76 613.217 -563.757 605.662 C-563.758 602.884 -563.762 600.106 -563.77 597.327 C-563.78 593.545 -563.777 589.763 -563.772 585.981 C-563.778 584.872 -563.783 583.763 -563.789 582.621 C-563.771 577.887 -563.68 574.863 -561.531 570.566 C-556.789 568.195 -553.95 568.32 -548.66 568.326 C-547.754 568.324 -546.848 568.322 -545.915 568.321 C-542.873 568.317 -539.832 568.328 -536.79 568.339 C-534.612 568.34 -532.434 568.34 -530.256 568.338 C-524.337 568.338 -518.418 568.35 -512.499 568.364 C-506.316 568.376 -500.133 568.377 -493.949 568.38 C-482.237 568.386 -470.526 568.402 -458.814 568.422 C-445.481 568.445 -432.149 568.456 -418.817 568.466 C-391.388 568.487 -363.96 568.522 -336.531 568.566 C-336.535 568.121 -336.535 568.121 -336.551 565.867 C-336.612 557.465 -336.657 549.064 -336.687 540.663 C-336.702 536.343 -336.724 532.024 -336.758 527.705 C-336.796 522.738 -336.811 517.772 -336.824 512.805 C-336.832 512.03 -336.832 512.03 -336.871 508.11 C-336.871 506.669 -336.872 505.228 -336.872 503.743 C-336.875 503.109 -336.875 503.109 -336.892 499.901 C-336.471 496.012 -335.316 493.351 -332.531 490.566 C-330.691 490.443 -328.846 490.388 -327.002 490.361 C-325.821 490.341 -324.639 490.321 -323.422 490.301 C-322.78 490.292 -322.78 490.292 -319.527 490.25 C-318.219 490.229 -316.911 490.208 -315.563 490.187 C-311.365 490.121 -307.167 490.063 -302.969 490.004 C-300.131 489.961 -297.293 489.917 -294.455 489.873 C-287.481 489.766 -280.506 489.664 -273.531 489.566 C-273.54 488.786 -273.549 488.006 -273.558 487.202 C-273.647 479.091 -273.707 470.981 -273.751 462.87 C-273.771 459.841 -273.798 456.813 -273.833 453.785 C-273.881 449.436 -273.904 445.087 -273.922 440.738 C-273.932 440.06 -273.932 440.06 -273.984 436.625 C-273.985 435.364 -273.985 434.103 -273.985 432.804 C-273.994 431.693 -274.003 430.583 -274.012 429.439 C-273.395 425.755 -272.498 424.809 -269.531 422.566 C-266.089 422.085 -266.089 422.085 -261.917 422.112 C-261.136 422.112 -261.136 422.112 -257.186 422.113 C-255.483 422.134 -253.781 422.155 -252.078 422.176 C-250.335 422.183 -248.592 422.189 -246.849 422.193 C-242.265 422.208 -237.682 422.247 -233.099 422.292 C-228.42 422.333 -223.741 422.351 -219.062 422.371 C-209.885 422.414 -200.708 422.482 -191.531 422.566 C-191.536 421.694 -191.54 420.822 -191.545 419.923 C-191.656 398.708 -191.738 377.493 -191.79 356.278 C-191.816 346.019 -191.851 335.759 -191.908 325.5 C-191.958 316.559 -191.991 307.619 -192.002 298.678 C-192.008 293.943 -192.024 289.208 -192.06 284.473 C-192.094 280.017 -192.104 275.563 -192.097 271.107 C-192.099 268.689 -192.126 266.271 -192.153 263.853 C-192.146 262.417 -192.14 260.981 -192.133 259.501 C-192.137 258.251 -192.142 257.001 -192.146 255.714 C-191.531 252.566 -191.531 252.566 -189.167 250.161 C-186.085 248.297 -184.368 248.099 -180.793 248.176 C-179.726 248.189 -178.66 248.202 -177.561 248.215 C-176.458 248.248 -175.355 248.282 -174.219 248.316 C-173.097 248.334 -171.974 248.352 -170.818 248.371 C-168.055 248.418 -165.294 248.484 -162.531 248.566 C-162.552 247.133 -162.573 245.7 -162.595 244.224 C-162.667 238.909 -162.713 233.594 -162.751 228.278 C-162.771 225.977 -162.798 223.677 -162.833 221.376 C-162.882 218.07 -162.904 214.764 -162.922 211.457 C-162.943 210.428 -162.963 209.398 -162.984 208.338 C-162.986 204.496 -162.94 201.353 -161.147 197.901 C-157.003 195.787 -152.813 196.151 -148.281 196.316 C-147.345 196.334 -146.41 196.352 -145.445 196.371 C-143.14 196.418 -140.836 196.49 -138.531 196.566 C-138.547 195.32 -138.563 194.074 -138.579 192.79 C-138.633 188.159 -138.668 183.528 -138.696 178.897 C-138.711 176.894 -138.732 174.891 -138.758 172.888 C-138.794 170.006 -138.811 167.124 -138.824 164.242 C-138.84 163.349 -138.855 162.456 -138.871 161.536 C-138.872 156.717 -138.646 153.362 -135.531 149.566 C-131.864 147.733 -127.448 148.468 -123.406 148.504 C-122.461 148.508 -121.516 148.513 -120.543 148.518 C-118.206 148.529 -115.868 148.547 -113.531 148.566 C-113.396 147.458 -113.261 146.349 -113.121 145.207 C-112.531 141.566 -112.531 141.566 -111.094 139.316 C-107.184 136.647 -103.1 135.769 -98.531 134.566 C-98.589 133.686 -98.647 132.806 -98.707 131.898 C-98.752 130.737 -98.797 129.576 -98.844 128.379 C-98.902 127.23 -98.96 126.082 -99.02 124.898 C-98.531 121.566 -98.531 121.566 -96.625 118.66 C-92.386 115.791 -88.642 116.015 -83.719 116.254 C-82.835 116.276 -81.951 116.299 -81.041 116.322 C-78.87 116.381 -76.701 116.471 -74.531 116.566 C-74.589 115.458 -74.647 114.349 -74.707 113.207 C-74.752 111.758 -74.797 110.309 -74.844 108.816 C-74.902 107.378 -74.96 105.939 -75.02 104.457 C-74.531 100.566 -74.531 100.566 -72.375 98.066 C-69.167 96.374 -67.314 96.143 -63.719 96.316 C-62.743 96.353 -61.767 96.389 -60.762 96.426 C-60.026 96.472 -59.29 96.519 -58.531 96.566 C-58.589 95.614 -58.647 94.661 -58.707 93.68 C-58.752 92.425 -58.797 91.171 -58.844 89.879 C-58.902 88.638 -58.96 87.396 -59.02 86.117 C-58.531 82.566 -58.531 82.566 -56.5 79.629 C-52.662 76.963 -50.345 77.053 -45.719 77.254 C-44.372 77.299 -43.025 77.344 -41.637 77.391 C-40.612 77.449 -39.587 77.507 -38.531 77.566 C-38.554 76.313 -38.578 75.06 -38.602 73.77 C-38.611 72.952 -38.611 72.952 -38.656 68.816 C-38.679 67.192 -38.703 65.568 -38.727 63.895 C-38.531 59.566 -38.531 59.566 -36.531 55.566 C-33.004 53.215 -31.502 53.352 -27.344 53.441 C-26.257 53.459 -25.17 53.478 -24.051 53.496 C-23.219 53.519 -22.388 53.543 -21.531 53.566 C-21.445 52.627 -21.359 51.687 -21.27 50.719 C-20.203 40.164 -18.751 29.678 -17.156 19.191 C-16.959 17.818 -16.763 16.446 -16.56 15.031 C-16.357 13.736 -16.154 12.44 -15.945 11.105 C-15.857 10.524 -15.857 10.524 -15.413 7.581 C-13.043 -0.524 -7.505 -0.037 0 0 Z M-2.531 14.566 C-2.99 17.913 -3.449 21.259 -3.922 24.707 C-4.378 27.948 -4.84 31.187 -5.302 34.427 C-5.62 36.679 -5.933 38.931 -6.239 41.184 C-6.68 44.423 -7.142 47.659 -7.609 50.895 C-7.742 51.902 -7.874 52.909 -8.011 53.947 C-8.598 57.899 -9.071 60.944 -11.477 64.195 C-14.138 65.971 -16.102 66.165 -19.281 66.316 C-20.266 66.373 -21.251 66.43 -22.266 66.488 C-23.013 66.514 -23.761 66.54 -24.531 66.566 C-24.545 67.808 -24.56 69.049 -24.574 70.328 C-24.622 71.954 -24.67 73.579 -24.719 75.254 C-24.754 76.867 -24.788 78.479 -24.824 80.141 C-25.531 84.566 -25.531 84.566 -27.625 87.598 C-31.211 90.027 -33.54 90.258 -37.844 90.379 C-38.471 90.403 -38.471 90.403 -41.645 90.523 C-42.597 90.538 -43.55 90.552 -44.531 90.566 C-44.544 91.049 -44.544 91.049 -44.609 93.488 C-44.638 94.12 -44.638 94.12 -44.781 97.316 C-44.828 98.569 -44.874 99.822 -44.922 101.113 C-45.531 104.566 -45.531 104.566 -47.219 106.973 C-50.037 108.915 -51.883 109.155 -55.281 109.316 C-56.266 109.373 -57.251 109.43 -58.266 109.488 C-59.013 109.514 -59.761 109.54 -60.531 109.566 C-60.544 110.085 -60.544 110.085 -60.609 112.707 C-60.638 113.385 -60.638 113.385 -60.781 116.816 C-60.828 118.162 -60.874 119.508 -60.922 120.895 C-61.531 124.566 -61.531 124.566 -62.938 127.004 C-66.976 129.437 -71.194 129.246 -75.781 129.316 C-76.249 129.331 -76.249 129.331 -78.617 129.406 C-80.921 129.477 -83.226 129.524 -85.531 129.566 C-85.557 130.47 -85.583 131.374 -85.609 132.305 C-85.666 133.484 -85.723 134.664 -85.781 135.879 C-85.828 137.051 -85.874 138.222 -85.922 139.43 C-86.531 142.566 -86.531 142.566 -90.531 145.566 C-93.84 146.504 -97.133 146.985 -100.531 147.566 C-100.531 147.896 -100.531 148.226 -100.531 148.566 C-26.941 148.566 46.649 148.566 122.469 148.566 C122.469 148.236 122.469 147.906 122.469 147.566 C121.77 147.373 121.071 147.18 120.352 146.98 C119.441 146.72 118.531 146.46 117.594 146.191 C116.689 145.936 115.784 145.681 114.852 145.418 C112.469 144.566 112.469 144.566 110.469 142.566 C110.055 139.527 110.055 139.527 109.844 135.941 C109.806 135.347 109.806 135.347 109.617 132.34 C109.568 131.425 109.519 130.509 109.469 129.566 C108.132 129.506 106.795 129.445 105.418 129.383 C103.664 129.298 101.91 129.214 100.156 129.129 C99.275 129.09 98.394 129.05 97.486 129.01 C90.809 128.68 90.809 128.68 87.469 127.566 C86.507 123.719 86.162 120.265 85.906 116.316 C85.822 115.053 85.739 113.79 85.652 112.488 C85.592 111.524 85.531 110.56 85.469 109.566 C84.637 109.529 83.806 109.492 82.949 109.453 C81.863 109.387 80.776 109.322 79.656 109.254 C78.577 109.196 77.498 109.138 76.387 109.078 C73.469 108.566 73.469 108.566 70.469 105.566 C69.957 101.992 69.957 101.992 69.781 97.879 C69.748 97.196 69.748 97.196 69.582 93.742 C69.563 93.218 69.563 93.218 69.469 90.566 C68.505 90.529 67.54 90.492 66.547 90.453 C65.284 90.387 64.02 90.322 62.719 90.254 C61.466 90.196 60.213 90.138 58.922 90.078 C55.469 89.566 55.469 89.566 51.469 86.566 C51.013 83.074 50.772 79.876 50.719 76.379 C50.689 75.439 50.659 74.498 50.629 73.529 C50.558 71.209 50.511 68.888 50.469 66.566 C49.565 66.529 48.661 66.492 47.73 66.453 C46.551 66.387 45.371 66.322 44.156 66.254 C43.57 66.225 43.57 66.225 40.605 66.078 C37.469 65.566 37.469 65.566 34.469 62.566 C33.719 58.947 33.131 55.429 32.645 51.773 C32.493 50.712 32.342 49.651 32.187 48.558 C31.706 45.166 31.244 41.773 30.781 38.379 C30.459 36.08 30.135 33.781 29.811 31.482 C29.015 25.846 28.242 20.206 27.469 14.566 C17.569 14.566 7.669 14.566 -2.531 14.566 Z M-124.531 162.566 C-124.531 173.786 -124.531 185.006 -124.531 196.566 C-34.771 196.566 54.989 196.566 147.469 196.566 C147.469 185.346 147.469 174.126 147.469 162.566 C57.709 162.566 -32.051 162.566 -124.531 162.566 Z M-148.531 209.566 C-148.531 222.436 -148.531 235.306 -148.531 248.566 C-42.931 248.566 62.669 248.566 171.469 248.566 C171.469 236.026 171.469 223.486 171.469 210.566 C170.469 209.566 170.469 209.566 168.299 209.442 C167.33 209.443 166.362 209.443 165.364 209.443 C164.251 209.441 163.137 209.439 161.99 209.437 C160.752 209.44 159.514 209.443 158.238 209.446 C156.935 209.445 155.631 209.444 154.288 209.444 C149.883 209.442 145.477 209.447 141.072 209.453 C137.929 209.453 134.786 209.453 131.643 209.452 C124.857 209.452 118.071 209.455 111.286 209.461 C101.474 209.469 91.663 209.471 81.851 209.473 C65.935 209.475 50.018 209.482 34.102 209.491 C18.636 209.5 3.171 209.507 -12.295 209.511 C-12.771 209.512 -12.771 209.512 -15.181 209.512 C-19.96 209.514 -24.739 209.515 -29.517 209.516 C-69.189 209.526 -108.86 209.544 -148.531 209.566 Z M-178.531 262.566 C-178.531 333.186 -178.531 403.806 -178.531 476.566 C-53.461 476.566 71.609 476.566 200.469 476.566 C200.469 405.946 200.469 335.326 200.469 262.566 C75.399 262.566 -49.671 262.566 -178.531 262.566 Z M-260.531 436.566 C-260.552 445.291 -260.572 454.015 -260.594 463.004 C-260.603 465.762 -260.612 468.52 -260.621 471.361 C-260.624 473.532 -260.627 475.704 -260.629 477.875 C-260.634 479.014 -260.639 480.153 -260.644 481.327 C-260.645 484.074 -260.594 486.82 -260.531 489.566 C-258.719 491.379 -255.923 490.697 -253.484 490.699 C-252.247 490.701 -251.009 490.702 -249.734 490.703 C-248.43 490.699 -247.125 490.695 -245.781 490.691 C-244.492 490.695 -243.203 490.699 -241.875 490.703 C-240.632 490.702 -239.39 490.701 -238.109 490.699 C-237.539 490.699 -237.539 490.699 -234.653 490.696 C-231.825 490.579 -229.281 490.214 -226.531 489.566 C-226.449 488.143 -226.366 486.72 -226.281 485.254 C-225.531 480.566 -225.531 480.566 -221.531 477.566 C-218.323 477.134 -218.323 477.134 -214.578 477.055 C-213.37 477.022 -212.162 476.988 -210.917 476.954 C-209.387 476.929 -207.857 476.905 -206.281 476.879 C-201.414 476.776 -196.546 476.673 -191.531 476.566 C-191.531 463.366 -191.531 450.166 -191.531 436.566 C-214.301 436.566 -237.071 436.566 -260.531 436.566 Z M-213.531 490.566 C-213.531 514.326 -213.531 538.086 -213.531 562.566 C-65.361 562.566 82.809 562.566 235.469 562.566 C236.571 559.259 236.596 556.806 236.598 553.323 C236.601 552.034 236.604 550.746 236.608 549.419 C236.606 548.025 236.604 546.631 236.602 545.195 C236.603 543.766 236.603 542.337 236.604 540.865 C236.605 537.84 236.603 534.814 236.599 531.789 C236.594 527.151 236.599 522.514 236.605 517.877 C236.605 514.941 236.604 512.006 236.602 509.07 C236.603 508.374 236.603 508.374 236.608 504.853 C236.605 503.562 236.601 502.27 236.598 500.94 C236.597 499.803 236.597 498.666 236.596 497.495 C236.469 494.566 236.469 494.566 235.469 490.566 C87.299 490.566 -60.871 490.566 -213.531 490.566 Z M-322.531 503.566 C-322.531 622.036 -322.531 740.506 -322.531 862.566 C-285.901 862.566 -249.271 862.566 -211.531 862.566 C-211.531 768.186 -211.531 673.806 -211.531 576.566 C-215.821 575.906 -220.111 575.246 -224.531 574.566 C-225.965 571.7 -225.696 569.21 -225.737 566.005 C-225.757 564.605 -225.777 563.204 -225.798 561.761 C-225.806 561.021 -225.806 561.021 -225.848 557.277 C-225.866 555.923 -225.885 554.569 -225.904 553.173 C-225.973 548.096 -226.033 543.019 -226.094 537.941 C-226.238 526.598 -226.382 515.254 -226.531 503.566 C-258.211 503.566 -289.891 503.566 -322.531 503.566 Z M249.469 503.566 C249.031 537.941 249.031 537.941 248.901 548.802 C248.863 551.627 248.824 554.452 248.785 557.277 C248.769 558.757 248.752 560.237 248.735 561.761 C248.715 563.162 248.695 564.562 248.674 566.005 C248.659 567.227 248.643 568.448 248.627 569.706 C248.469 572.566 248.469 572.566 247.469 574.566 C245.489 574.896 245.489 574.896 235.469 576.566 C235.469 670.946 235.469 765.326 235.469 862.566 C271.769 862.566 308.069 862.566 345.469 862.566 C345.469 744.096 345.469 625.626 345.469 503.566 C313.789 503.566 282.109 503.566 249.469 503.566 Z M-197.531 576.566 C-197.531 670.946 -197.531 765.326 -197.531 862.566 C-181.361 862.566 -165.191 862.566 -148.531 862.566 C-148.441 831.439 -148.367 800.312 -148.324 769.185 C-148.303 754.733 -148.275 740.281 -148.229 725.829 C-148.19 713.237 -148.164 700.645 -148.155 688.053 C-148.15 681.382 -148.137 674.711 -148.108 668.04 C-148.081 661.767 -148.073 655.495 -148.079 649.223 C-148.078 646.914 -148.07 644.606 -148.054 642.298 C-148.035 639.158 -148.039 636.02 -148.05 632.88 C-148.044 632.418 -148.044 632.418 -148.015 630.08 C-148.039 627.545 -148.039 627.545 -148.531 623.566 C-149.851 622.906 -151.171 622.246 -152.531 621.566 C-153.946 618.738 -153.85 616.693 -153.531 613.566 C-149.388 610.459 -148.811 610.191 -144.006 610.189 C-142.875 610.181 -141.745 610.173 -140.58 610.165 C-139.337 610.172 -138.095 610.179 -136.815 610.185 C-135.495 610.181 -134.176 610.176 -132.816 610.171 C-128.374 610.159 -123.932 610.169 -119.49 610.178 C-116.314 610.174 -113.138 610.169 -109.961 610.162 C-102.217 610.15 -94.474 610.152 -86.73 610.161 C-80.437 610.167 -74.145 610.168 -67.853 610.165 C-67.405 610.165 -67.405 610.165 -65.141 610.164 C-63.324 610.163 -61.506 610.162 -59.689 610.161 C-42.636 610.152 -25.584 610.162 -8.532 610.178 C6.108 610.191 20.747 610.189 35.386 610.175 C52.377 610.159 69.367 610.153 86.357 610.162 C88.168 610.163 89.979 610.164 91.79 610.165 C92.236 610.165 92.236 610.165 94.49 610.166 C100.777 610.169 107.063 610.165 113.35 610.158 C121.807 610.148 130.264 610.155 138.722 610.172 C141.832 610.176 144.943 610.175 148.054 610.168 C152.287 610.16 156.519 610.17 160.752 610.185 C161.374 610.182 161.374 610.182 164.517 610.165 C165.082 610.169 165.082 610.169 167.943 610.189 C168.921 610.189 169.898 610.19 170.905 610.19 C173.469 610.566 173.469 610.566 177.469 613.566 C178.094 616.504 178.094 616.504 177.469 619.566 C176.481 620.093 175.493 620.619 174.475 621.161 C171.469 623.566 171.469 623.566 170.73 627.791 C170.705 629.568 170.713 631.345 170.747 633.121 C170.742 634.1 170.737 635.08 170.732 636.089 C170.722 639.38 170.755 642.669 170.788 645.96 C170.789 648.315 170.788 650.67 170.785 653.026 C170.783 659.428 170.819 665.83 170.86 672.233 C170.898 678.921 170.901 685.609 170.909 692.296 C170.927 704.965 170.976 717.633 171.037 730.301 C171.104 744.721 171.137 759.142 171.167 773.563 C171.23 803.231 171.335 832.899 171.469 862.566 C178.429 862.591 185.389 862.609 192.349 862.621 C194.719 862.626 197.088 862.633 199.458 862.642 C202.856 862.654 206.254 862.66 209.652 862.664 C210.719 862.669 211.786 862.674 212.885 862.68 C215.413 862.68 217.941 862.629 220.469 862.566 C222.591 860.444 221.592 856.813 221.598 853.977 C221.595 852.871 221.592 851.766 221.589 850.626 C221.59 849.465 221.591 848.303 221.592 847.106 C221.593 843.167 221.588 839.229 221.582 835.291 C221.582 832.437 221.582 829.584 221.583 826.73 C221.583 819.058 221.577 811.386 221.57 803.714 C221.564 796.526 221.564 789.338 221.563 782.151 C221.558 761.102 221.544 740.053 221.531 719.004 C221.511 672 221.49 624.995 221.469 576.566 C83.199 576.566 -55.071 576.566 -197.531 576.566 Z M-549.531 582.566 C-549.531 674.966 -549.531 767.366 -549.531 862.566 C-479.241 862.566 -408.951 862.566 -336.531 862.566 C-336.531 770.166 -336.531 677.766 -336.531 582.566 C-406.821 582.566 -477.111 582.566 -549.531 582.566 Z M359.469 582.566 C359.469 674.966 359.469 767.366 359.469 862.566 C430.089 862.566 500.709 862.566 573.469 862.566 C573.469 770.166 573.469 677.766 573.469 582.566 C502.849 582.566 432.229 582.566 359.469 582.566 Z M-134.531 623.566 C-134.531 702.436 -134.531 781.306 -134.531 862.566 C-120.341 862.566 -106.151 862.566 -91.531 862.566 C-91.531 783.696 -91.531 704.826 -91.531 623.566 C-105.721 623.566 -119.911 623.566 -134.531 623.566 Z M-53.531 623.566 C-53.531 702.436 -53.531 781.306 -53.531 862.566 C-38.021 862.566 -22.511 862.566 -6.531 862.566 C-6.531 783.696 -6.531 704.826 -6.531 623.566 C-22.041 623.566 -37.551 623.566 -53.531 623.566 Z M30.469 623.566 C30.469 702.436 30.469 781.306 30.469 862.566 C46.309 862.566 62.149 862.566 78.469 862.566 C78.469 783.696 78.469 704.826 78.469 623.566 C62.629 623.566 46.789 623.566 30.469 623.566 Z M115.469 623.566 C115.469 702.436 115.469 781.306 115.469 862.566 C129.329 862.566 143.189 862.566 157.469 862.566 C158.828 858.489 158.606 854.543 158.596 850.291 C158.597 849.329 158.599 848.368 158.6 847.377 C158.604 844.141 158.601 840.905 158.598 837.669 C158.599 835.355 158.601 833.041 158.603 830.727 C158.608 824.432 158.606 818.137 158.603 811.842 C158.601 805.267 158.603 798.691 158.604 792.116 C158.606 781.075 158.604 770.033 158.599 758.992 C158.594 746.207 158.595 733.422 158.601 720.638 C158.605 709.679 158.606 698.72 158.604 687.761 C158.602 681.208 158.602 674.655 158.605 668.101 C158.608 661.944 158.606 655.786 158.6 649.629 C158.599 647.362 158.599 645.095 158.601 642.828 C158.604 639.748 158.601 636.668 158.596 633.588 C158.598 632.679 158.6 631.769 158.602 630.832 C158.583 624.681 158.583 624.681 157.469 623.566 C143.609 623.566 129.749 623.566 115.469 623.566 Z " fill="#000000" transform="translate(674.53125,235.43359375)"/>
<path d="M0 0 C1.059 -0.008 2.118 -0.016 3.209 -0.024 C6.764 -0.044 10.318 -0.028 13.873 -0.012 C16.418 -0.019 18.964 -0.028 21.51 -0.039 C28.43 -0.061 35.349 -0.053 42.268 -0.037 C49.501 -0.024 56.734 -0.036 63.967 -0.044 C76.114 -0.053 88.261 -0.041 100.407 -0.017 C114.462 0.01 128.517 0.001 142.572 -0.026 C154.628 -0.049 166.684 -0.052 178.74 -0.039 C185.946 -0.031 193.152 -0.03 200.357 -0.047 C207.13 -0.061 213.902 -0.051 220.674 -0.022 C223.164 -0.015 225.654 -0.017 228.143 -0.028 C231.534 -0.042 234.923 -0.025 238.313 0 C239.306 -0.011 240.298 -0.022 241.321 -0.034 C245.474 0.026 247.961 0.105 251.204 2.826 C252.726 5.904 253.096 7.801 253.101 11.221 C253.107 11.776 253.107 11.776 253.135 14.589 C253.131 15.194 253.131 15.194 253.111 18.256 C253.114 18.897 253.114 18.897 253.132 22.14 C253.149 26.38 253.138 30.618 253.124 34.858 C253.127 37.8 253.131 40.743 253.136 43.686 C253.142 49.854 253.133 56.021 253.114 62.189 C253.092 70.104 253.105 78.018 253.129 85.933 C253.143 92.01 253.139 98.086 253.128 104.162 C253.126 107.081 253.129 110 253.138 112.919 C253.148 116.994 253.133 121.068 253.111 125.143 C253.119 126.355 253.127 127.567 253.135 128.816 C253.124 129.925 253.113 131.034 253.101 132.176 C253.1 132.658 253.1 132.658 253.096 135.095 C252.593 137.635 252.593 137.635 251.207 139.945 C247.14 142.574 242.949 142.181 238.262 142.136 C237.199 142.142 236.136 142.147 235.04 142.153 C231.466 142.167 227.893 142.152 224.319 142.137 C221.762 142.14 219.205 142.146 216.648 142.153 C209.693 142.167 202.739 142.156 195.785 142.139 C188.518 142.125 181.251 142.132 173.984 142.135 C161.78 142.138 149.576 142.125 137.372 142.101 C123.247 142.075 109.122 142.073 94.998 142.085 C81.428 142.096 67.859 142.089 54.289 142.075 C48.506 142.07 42.722 142.07 36.939 142.074 C30.134 142.079 23.329 142.069 16.524 142.047 C14.02 142.042 11.517 142.041 9.014 142.046 C5.609 142.052 2.203 142.04 -1.203 142.023 C-1.703 142.026 -1.703 142.026 -4.233 142.041 C-11.065 141.977 -11.065 141.977 -14.407 138.635 C-15.678 136.092 -15.544 134.302 -15.561 131.455 C-15.565 130.906 -15.565 130.906 -15.587 128.128 C-15.591 126.918 -15.595 125.708 -15.6 124.462 C-15.608 123.192 -15.616 121.922 -15.625 120.613 C-15.65 116.395 -15.666 112.177 -15.68 107.959 C-15.686 106.522 -15.691 105.085 -15.697 103.604 C-15.723 95.999 -15.743 88.394 -15.757 80.789 C-15.774 72.92 -15.819 65.052 -15.869 57.183 C-15.903 51.144 -15.915 45.106 -15.92 39.067 C-15.927 36.166 -15.942 33.264 -15.966 30.363 C-15.998 26.307 -15.998 22.252 -15.99 18.196 C-16.007 16.992 -16.023 15.789 -16.04 14.548 C-16.032 13.442 -16.024 12.336 -16.015 11.196 C-16.018 10.237 -16.022 9.278 -16.025 8.29 C-14.07 -0.109 -7.336 -0.083 0 0 Z M-1.407 14.635 C-1.407 52.255 -1.407 89.875 -1.407 128.635 C9.931 128.635 21.294 128.577 32.593 127.635 C32.593 90.345 32.593 53.055 32.593 14.635 C21.373 14.635 10.153 14.635 -1.407 14.635 Z M47.593 14.635 C47.593 52.255 47.593 89.875 47.593 128.635 C59.803 128.635 72.013 128.635 84.593 128.635 C84.593 91.015 84.593 53.395 84.593 14.635 C72.383 14.635 60.173 14.635 47.593 14.635 Z M99.593 14.635 C99.57 29.351 99.552 44.067 99.541 58.783 C99.536 65.616 99.529 72.448 99.518 79.281 C99.507 85.868 99.501 92.456 99.498 99.043 C99.496 101.563 99.493 104.083 99.487 106.602 C99.48 110.117 99.479 113.633 99.479 117.148 C99.476 118.201 99.472 119.254 99.469 120.339 C99.479 127.521 99.479 127.521 100.593 128.635 C102.571 128.735 104.553 128.766 106.534 128.768 C107.146 128.768 107.146 128.768 110.243 128.772 C110.889 128.77 110.889 128.77 114.156 128.76 C114.787 128.762 114.787 128.762 117.986 128.772 C119.219 128.77 120.452 128.769 121.722 128.768 C122.847 128.767 123.971 128.765 125.13 128.764 C128.994 128.62 132.76 128.133 136.593 127.635 C137.377 112.937 137.732 98.297 137.691 83.58 C137.689 81.571 137.687 79.563 137.686 77.554 C137.683 72.349 137.673 67.145 137.662 61.94 C137.651 56.596 137.647 51.252 137.642 45.908 C137.631 35.484 137.614 25.059 137.593 14.635 C125.053 14.635 112.513 14.635 99.593 14.635 Z M151.593 14.635 C151.593 52.255 151.593 89.875 151.593 128.635 C164.264 128.635 176.934 128.185 189.593 127.635 C189.593 90.345 189.593 53.055 189.593 14.635 C177.053 14.635 164.513 14.635 151.593 14.635 Z M203.593 14.635 C203.593 52.255 203.593 89.875 203.593 128.635 C214.813 128.635 226.033 128.635 237.593 128.635 C239.671 126.557 238.713 123.112 238.717 120.339 C238.714 119.286 238.71 118.233 238.707 117.148 C238.707 116.046 238.707 114.944 238.707 113.808 C238.706 110.145 238.698 106.482 238.691 102.819 C238.689 100.286 238.687 97.754 238.686 95.222 C238.683 88.543 238.673 81.863 238.662 75.184 C238.651 68.374 238.647 61.564 238.642 54.754 C238.631 41.381 238.613 28.008 238.593 14.635 C227.043 14.635 215.493 14.635 203.593 14.635 Z " fill="#000000" transform="translate(567.4069976806641,534.3650817871094)"/>
<path d="M0 0 C1.458 -0.006 2.916 -0.013 4.418 -0.02 C5.94 -0 7.463 0.019 9.031 0.039 C9.792 0.029 9.792 0.029 13.645 -0.02 C14.373 -0.016 14.373 -0.016 18.062 0 C19.399 0.006 20.735 0.011 22.111 0.017 C25.531 0.664 25.531 0.664 27.963 2.407 C30.467 7.606 30.121 12.748 30.098 18.445 C30.104 19.692 30.11 20.938 30.116 22.222 C30.124 24.854 30.12 27.487 30.108 30.12 C30.094 34.15 30.128 38.177 30.166 42.207 C30.167 44.766 30.165 47.324 30.16 49.883 C30.173 51.088 30.187 52.293 30.2 53.535 C30.109 61.771 30.109 61.771 27.422 65.926 C23.898 68.045 21.757 68.282 17.656 68.258 C16.341 68.255 15.027 68.253 13.672 68.25 C12.305 68.222 10.939 68.193 9.531 68.164 C8.165 68.167 6.798 68.169 5.391 68.172 C-6.102 68.059 -6.102 68.059 -10.469 64.664 C-11.489 61.604 -11.613 59.468 -11.646 56.262 C-11.659 55.157 -11.671 54.053 -11.685 52.914 C-11.688 52.317 -11.688 52.317 -11.707 49.297 C-11.715 48.07 -11.723 46.843 -11.731 45.579 C-11.745 42.982 -11.756 40.384 -11.764 37.787 C-11.781 33.812 -11.825 29.838 -11.869 25.863 C-11.879 23.341 -11.888 20.819 -11.895 18.297 C-11.912 17.107 -11.93 15.917 -11.948 14.692 C-11.926 6.617 -11.926 6.617 -9.909 2.416 C-6.516 -0.02 -4.158 0.018 0 0 Z M2.531 13.664 C2.531 26.864 2.531 40.064 2.531 53.664 C6.821 53.664 11.111 53.664 15.531 53.664 C15.531 40.464 15.531 27.264 15.531 13.664 C11.241 13.664 6.951 13.664 2.531 13.664 Z " fill="#000000" transform="translate(397.46875,863.3359375)"/>
<path d="M0 0 C1.458 -0.002 2.916 -0.004 4.418 -0.006 C5.94 0.018 7.463 0.042 9.031 0.066 C10.554 0.055 12.076 0.044 13.645 0.033 C24.853 0.108 24.853 0.108 27.712 2.306 C29.973 5.193 30.042 6.69 30.065 10.328 C30.081 11.473 30.096 12.617 30.113 13.797 C30.108 15.029 30.103 16.262 30.098 17.531 C30.104 18.801 30.11 20.071 30.116 21.379 C30.124 24.065 30.12 26.751 30.108 29.436 C30.094 33.548 30.128 37.657 30.166 41.768 C30.167 44.376 30.165 46.985 30.16 49.594 C30.173 50.824 30.187 52.054 30.2 53.322 C30.109 61.727 30.109 61.727 27.435 65.902 C23.858 68.029 21.591 68.274 17.438 68.293 C16.078 68.299 14.718 68.306 13.316 68.312 C12.609 68.303 12.609 68.303 9.031 68.254 C7.617 68.273 6.203 68.293 4.746 68.312 C3.386 68.306 2.026 68.3 0.625 68.293 C-0.616 68.287 -1.856 68.282 -3.135 68.276 C-6.469 67.629 -6.469 67.629 -9.373 65.886 C-12.662 60.775 -12.163 55.801 -12.098 49.848 C-12.1 48.601 -12.102 47.355 -12.105 46.071 C-12.104 43.439 -12.091 40.806 -12.066 38.173 C-12.031 34.143 -12.045 30.116 -12.064 26.086 C-12.058 23.527 -12.048 20.969 -12.035 18.41 C-12.038 17.807 -12.038 17.807 -12.05 14.758 C-11.935 6.598 -11.935 6.598 -9.9 2.369 C-6.509 -0.058 -4.151 -0.002 0 0 Z M2.531 13.629 C2.531 26.829 2.531 40.029 2.531 53.629 C6.821 53.629 11.111 53.629 15.531 53.629 C15.556 48.093 15.574 42.557 15.586 37.021 C15.591 35.136 15.598 33.252 15.607 31.367 C15.619 28.664 15.624 25.961 15.629 23.258 C15.634 21.629 15.639 20.001 15.645 18.323 C15.531 14.629 15.531 14.629 14.531 13.629 C10.571 13.629 6.611 13.629 2.531 13.629 Z " fill="#000000" transform="translate(956.46875,863.37109375)"/>
<path d="M0 0 C1.36 -0.006 2.72 -0.013 4.121 -0.02 C4.828 -0.01 4.828 -0.01 8.406 0.039 C9.82 0.02 11.234 0 12.691 -0.02 C14.051 -0.013 15.411 -0.007 16.812 0 C18.053 0.006 19.294 0.011 20.572 0.017 C23.906 0.664 23.906 0.664 26.81 2.391 C30.127 7.57 29.6 12.676 29.535 18.699 C29.538 19.97 29.54 21.241 29.542 22.55 C29.541 25.234 29.528 27.918 29.503 30.602 C29.469 34.715 29.483 38.826 29.502 42.939 C29.495 45.547 29.485 48.154 29.473 50.762 C29.478 51.994 29.483 53.226 29.488 54.496 C29.48 55.068 29.48 55.068 29.44 57.965 C29.433 58.971 29.427 59.978 29.421 61.015 C28.764 64.395 27.608 65.586 24.906 67.664 C19.446 68.516 13.925 68.266 8.406 68.227 C7.645 68.238 7.645 68.238 3.793 68.299 C2.335 68.297 0.877 68.295 -0.625 68.293 C-1.293 68.293 -1.293 68.293 -4.674 68.295 C-8.094 67.664 -8.094 67.664 -10.525 65.924 C-13.028 60.723 -12.684 55.581 -12.66 49.883 C-12.666 48.637 -12.673 47.39 -12.679 46.106 C-12.686 43.474 -12.683 40.841 -12.67 38.208 C-12.656 34.179 -12.69 30.151 -12.729 26.121 C-12.729 23.562 -12.728 21.004 -12.723 18.445 C-12.729 17.843 -12.729 17.843 -12.763 14.793 C-12.671 6.561 -12.671 6.561 -9.998 2.407 C-6.42 0.26 -4.164 0.019 0 0 Z M1.906 14.664 C1.906 27.864 1.906 41.064 1.906 54.664 C12.906 54.664 12.906 54.664 14.906 53.664 C15.083 50.792 15.12 47.912 15.102 45.035 C15.1 44.603 15.1 44.603 15.093 42.416 C15.082 39.645 15.057 36.873 15.031 34.102 C15.021 32.227 15.012 30.353 15.004 28.479 C14.982 23.874 14.947 19.269 14.906 14.664 C10.616 14.664 6.326 14.664 1.906 14.664 Z " fill="#000000" transform="translate(178.09375,871.3359375)"/>
<path d="M0 0 C1.375 -0.029 2.751 -0.058 4.168 -0.088 C5.492 -0.096 6.816 -0.105 8.18 -0.113 C9.391 -0.128 10.603 -0.142 11.851 -0.157 C15.992 0.437 17.495 1.021 20.125 4.312 C20.651 8.035 20.87 11.308 20.867 15.035 C20.876 15.563 20.876 15.563 20.92 18.235 C20.97 21.615 20.985 24.994 21 28.375 C21.032 30.624 21.066 32.874 21.102 35.123 C21.129 37.302 21.156 39.481 21.18 41.66 C21.191 42.663 21.202 43.665 21.214 44.698 C21.234 49.588 21.146 54.47 20.872 59.353 C20.826 60.234 20.78 61.115 20.732 62.023 C20.125 64.312 20.125 64.312 16.125 67.312 C10.649 67.985 5.138 67.822 -0.375 67.812 C-1.897 67.841 -3.42 67.869 -4.988 67.898 C-6.446 67.901 -7.904 67.904 -9.406 67.906 C-10.742 67.913 -12.078 67.92 -13.455 67.928 C-16.875 67.312 -16.875 67.312 -19.311 65.561 C-21.788 60.418 -21.425 55.384 -21.371 49.75 C-21.373 48.526 -21.374 47.302 -21.376 46.041 C-21.374 43.455 -21.362 40.87 -21.342 38.284 C-21.313 34.327 -21.321 30.371 -21.334 26.414 C-21.328 23.901 -21.319 21.388 -21.309 18.875 C-21.31 18.283 -21.31 18.283 -21.317 15.289 C-21.305 14.184 -21.292 13.08 -21.279 11.941 C-21.274 10.973 -21.268 10.004 -21.263 9.006 C-20.8 5.789 -19.822 3.901 -17.875 1.312 C-12.186 -0.584 -5.951 0.042 0 0 Z M-6.875 14.312 C-6.875 27.513 -6.875 40.712 -6.875 54.312 C-2.585 54.312 1.705 54.312 6.125 54.312 C7.125 53.312 7.125 53.312 7.239 49.619 C7.233 47.99 7.228 46.362 7.223 44.684 C7.221 43.819 7.22 42.955 7.218 42.065 C7.213 39.293 7.2 36.522 7.188 33.75 C7.182 31.876 7.178 30.001 7.174 28.127 C7.163 23.522 7.146 18.917 7.125 14.312 C2.505 14.312 -2.115 14.312 -6.875 14.312 Z " fill="#000000" transform="translate(277.875,871.6875)"/>
<path d="M0 0 C1.315 -0.005 2.63 -0.01 3.984 -0.016 C5.351 -0 6.717 0.015 8.125 0.031 C8.808 0.024 8.808 0.024 12.266 -0.016 C13.58 -0.01 14.895 -0.005 16.25 0 C17.449 0.005 18.648 0.009 19.883 0.014 C23.829 0.644 25.316 1.721 28.125 4.531 C28.753 7.27 28.753 7.27 28.756 10.446 C28.769 11.637 28.781 12.828 28.794 14.055 C28.781 15.338 28.768 16.62 28.754 17.941 C28.756 19.26 28.759 20.579 28.761 21.938 C28.76 24.727 28.747 27.515 28.722 30.303 C28.688 34.581 28.701 38.857 28.721 43.135 C28.714 45.841 28.704 48.548 28.691 51.254 C28.696 52.538 28.701 53.823 28.706 55.146 C28.699 55.74 28.699 55.74 28.658 58.746 C28.652 59.794 28.646 60.841 28.64 61.92 C28.125 64.531 28.125 64.531 24.125 67.531 C20.797 67.919 20.797 67.919 16.875 67.93 C15.462 67.934 14.049 67.937 12.594 67.941 C11.119 67.93 9.644 67.918 8.125 67.906 C6.65 67.918 5.176 67.929 3.656 67.941 C2.95 67.939 2.95 67.939 -0.625 67.93 C-1.919 67.926 -3.213 67.923 -4.547 67.919 C-7.875 67.531 -7.875 67.531 -11.875 64.531 C-12.39 61.92 -12.39 61.92 -12.408 58.746 C-12.424 57.558 -12.44 56.37 -12.456 55.146 C-12.451 53.862 -12.447 52.577 -12.441 51.254 C-12.448 49.936 -12.454 48.618 -12.46 47.26 C-12.467 44.47 -12.464 41.68 -12.451 38.89 C-12.438 34.614 -12.472 30.34 -12.51 26.064 C-12.511 23.357 -12.509 20.649 -12.504 17.941 C-12.517 16.659 -12.53 15.377 -12.544 14.055 C-12.532 12.864 -12.519 11.673 -12.506 10.446 C-12.505 9.398 -12.504 8.35 -12.503 7.27 C-11.875 4.531 -11.875 4.531 -9.538 2.194 C-6.164 0.087 -3.961 0.015 0 0 Z M1.125 14.531 C1.1 20.067 1.082 25.603 1.07 31.139 C1.065 33.024 1.058 34.908 1.05 36.793 C1.037 39.496 1.032 42.199 1.027 44.902 C1.022 46.531 1.017 48.16 1.011 49.838 C1.125 53.531 1.125 53.531 2.125 54.531 C4.123 54.63 6.125 54.661 8.125 54.656 C9.218 54.659 10.311 54.661 11.438 54.664 C14.125 54.531 14.125 54.531 15.125 53.531 C15.213 50.656 15.232 47.779 15.223 44.902 C15.221 44.038 15.22 43.174 15.218 42.283 C15.213 39.512 15.2 36.74 15.188 33.969 C15.182 32.094 15.178 30.22 15.174 28.346 C15.163 23.741 15.146 19.136 15.125 14.531 C10.505 14.531 5.885 14.531 1.125 14.531 Z " fill="#000000" transform="translate(1087.875,871.46875)"/>
<path d="M0 0 C1.36 -0.006 2.72 -0.013 4.121 -0.02 C4.828 -0.01 4.828 -0.01 8.406 0.039 C9.82 0.02 11.234 0 12.691 -0.02 C14.051 -0.013 15.411 -0.007 16.812 0 C18.053 0.006 19.294 0.011 20.572 0.017 C23.906 0.664 23.906 0.664 26.81 2.391 C30.127 7.57 29.6 12.676 29.535 18.699 C29.538 19.97 29.54 21.241 29.542 22.55 C29.541 25.234 29.528 27.918 29.503 30.602 C29.469 34.715 29.483 38.826 29.502 42.939 C29.495 45.547 29.485 48.154 29.473 50.762 C29.478 51.994 29.483 53.226 29.488 54.496 C29.48 55.068 29.48 55.068 29.44 57.965 C29.433 58.971 29.427 59.978 29.421 61.015 C28.764 64.395 27.609 65.586 24.906 67.664 C21.486 68.182 21.486 68.182 17.438 68.195 C16.709 68.198 16.709 68.198 13.02 68.211 C12.258 68.203 12.258 68.203 8.406 68.164 C7.645 68.172 7.645 68.172 3.793 68.211 C2.335 68.206 0.877 68.201 -0.625 68.195 C-1.961 68.191 -3.297 68.186 -4.674 68.182 C-8.708 67.571 -9.62 66.823 -12.094 63.664 C-12.608 61.015 -12.608 61.015 -12.627 57.965 C-12.643 56.82 -12.659 55.676 -12.675 54.496 C-12.67 53.264 -12.665 52.031 -12.66 50.762 C-12.666 49.492 -12.673 48.222 -12.679 46.914 C-12.686 44.228 -12.683 41.542 -12.67 38.857 C-12.656 34.745 -12.69 30.636 -12.729 26.525 C-12.729 23.917 -12.728 21.308 -12.723 18.699 C-12.736 17.469 -12.749 16.239 -12.763 14.971 C-12.671 6.566 -12.671 6.566 -9.998 2.391 C-6.421 0.264 -4.154 0.019 0 0 Z M1.906 14.664 C1.906 27.864 1.906 41.064 1.906 54.664 C6.196 54.664 10.486 54.664 14.906 54.664 C14.906 41.464 14.906 28.264 14.906 14.664 C10.616 14.664 6.326 14.664 1.906 14.664 Z " fill="#000000" transform="translate(1178.09375,871.3359375)"/>
<path d="M0 0 C1.36 -0.006 2.72 -0.013 4.121 -0.02 C4.828 -0.01 4.828 -0.01 8.406 0.039 C9.82 0.02 11.234 0 12.691 -0.02 C14.051 -0.013 15.411 -0.007 16.812 0 C18.053 0.006 19.294 0.011 20.572 0.017 C23.906 0.664 23.906 0.664 26.808 2.407 C30.099 7.515 29.62 12.492 29.57 18.445 C29.575 19.692 29.58 20.938 29.585 22.222 C29.588 24.854 29.579 27.487 29.558 30.12 C29.531 34.15 29.558 38.177 29.59 42.207 C29.587 44.766 29.58 47.324 29.57 49.883 C29.58 51.088 29.591 52.293 29.601 53.535 C29.486 61.765 29.486 61.765 26.808 65.921 C23.231 68.069 20.976 68.309 16.812 68.328 C15.453 68.335 14.093 68.341 12.691 68.348 C11.984 68.338 11.984 68.338 8.406 68.289 C6.992 68.308 5.578 68.328 4.121 68.348 C2.761 68.341 1.401 68.335 0 68.328 C-1.241 68.322 -2.481 68.317 -3.76 68.311 C-7.094 67.664 -7.094 67.664 -9.996 65.921 C-13.286 60.813 -12.808 55.836 -12.758 49.883 C-12.763 48.637 -12.767 47.39 -12.772 46.106 C-12.776 43.474 -12.767 40.841 -12.746 38.208 C-12.719 34.178 -12.745 30.151 -12.777 26.121 C-12.774 23.562 -12.768 21.004 -12.758 18.445 C-12.768 17.24 -12.778 16.035 -12.788 14.793 C-12.673 6.564 -12.673 6.564 -9.996 2.407 C-6.419 0.259 -4.163 0.019 0 0 Z M1.906 13.664 C1.906 26.864 1.906 40.064 1.906 53.664 C6.196 53.664 10.486 53.664 14.906 53.664 C14.906 40.794 14.906 27.924 14.906 14.664 C10.906 13.664 10.906 13.664 1.906 13.664 Z " fill="#000000" transform="translate(398.09375,979.3359375)"/>
<path d="M0 0 C1.36 -0.006 2.72 -0.013 4.121 -0.02 C4.828 -0.01 4.828 -0.01 8.406 0.039 C9.82 0.02 11.234 0 12.691 -0.02 C14.051 -0.013 15.411 -0.007 16.812 0 C18.053 0.006 19.294 0.011 20.572 0.017 C23.906 0.664 23.906 0.664 26.808 2.407 C30.099 7.515 29.62 12.492 29.57 18.445 C29.575 19.692 29.58 20.938 29.585 22.222 C29.588 24.854 29.579 27.487 29.558 30.12 C29.531 34.15 29.558 38.177 29.59 42.207 C29.587 44.766 29.58 47.324 29.57 49.883 C29.58 51.088 29.591 52.293 29.601 53.535 C29.486 61.765 29.486 61.765 26.808 65.921 C23.231 68.069 20.976 68.309 16.812 68.328 C15.453 68.335 14.093 68.341 12.691 68.348 C11.984 68.338 11.984 68.338 8.406 68.289 C6.992 68.308 5.578 68.328 4.121 68.348 C2.761 68.341 1.401 68.335 0 68.328 C-1.241 68.322 -2.481 68.317 -3.76 68.311 C-7.094 67.664 -7.094 67.664 -9.996 65.921 C-13.286 60.813 -12.808 55.836 -12.758 49.883 C-12.763 48.637 -12.767 47.39 -12.772 46.106 C-12.776 43.474 -12.767 40.841 -12.746 38.208 C-12.719 34.178 -12.745 30.151 -12.777 26.121 C-12.774 23.562 -12.768 21.004 -12.758 18.445 C-12.768 17.24 -12.778 16.035 -12.788 14.793 C-12.673 6.564 -12.673 6.564 -9.996 2.407 C-6.419 0.259 -4.163 0.019 0 0 Z M1.906 14.664 C1.73 17.536 1.692 20.416 1.711 23.293 C1.714 24.157 1.717 25.021 1.72 25.912 C1.731 28.684 1.756 31.455 1.781 34.227 C1.791 36.101 1.8 37.975 1.809 39.85 C1.831 44.455 1.865 49.059 1.906 53.664 C6.196 53.664 10.486 53.664 14.906 53.664 C14.931 48.128 14.949 42.592 14.961 37.056 C14.966 35.172 14.973 33.287 14.982 31.402 C14.994 28.699 14.999 25.996 15.004 23.293 C15.009 21.664 15.014 20.036 15.02 18.358 C14.906 14.664 14.906 14.664 13.906 13.664 C4.388 13.423 4.388 13.423 1.906 14.664 Z " fill="#000000" transform="translate(957.09375,979.3359375)"/>
<path d="M0 0 C0.705 -0.003 0.705 -0.003 4.271 -0.02 C5.738 -0 7.204 0.019 8.715 0.039 C10.185 0.02 11.655 0 13.17 -0.02 C13.874 -0.016 13.874 -0.016 17.438 0 C18.725 0.006 20.013 0.011 21.34 0.017 C24.652 0.664 24.652 0.664 26.827 2.846 C28.895 6.039 29.158 7.638 29.17 11.401 C29.183 12.529 29.195 13.656 29.208 14.818 C29.2 16.027 29.192 17.235 29.184 18.48 C29.187 19.729 29.191 20.978 29.195 22.264 C29.198 24.901 29.191 27.538 29.174 30.175 C29.152 34.215 29.174 38.254 29.199 42.295 C29.197 44.857 29.191 47.419 29.184 49.98 C29.192 51.191 29.2 52.401 29.208 53.649 C29.196 54.773 29.183 55.898 29.17 57.057 C29.168 57.551 29.168 57.551 29.16 60.053 C28.507 63.409 27.332 64.597 24.652 66.664 C19.192 67.516 13.671 67.266 8.152 67.227 C7.391 67.238 7.391 67.238 3.539 67.299 C2.081 67.297 0.623 67.295 -0.879 67.293 C-1.547 67.293 -1.547 67.293 -4.928 67.295 C-8.348 66.664 -8.348 66.664 -10.779 64.91 C-13.261 59.773 -12.938 54.734 -12.914 49.102 C-12.92 47.878 -12.926 46.653 -12.933 45.392 C-12.94 42.807 -12.937 40.221 -12.924 37.636 C-12.91 33.678 -12.944 29.723 -12.982 25.766 C-12.983 23.253 -12.982 20.74 -12.977 18.227 C-12.99 17.043 -13.003 15.86 -13.017 14.64 C-12.925 6.565 -12.925 6.565 -10.268 2.42 C-6.612 0.221 -4.258 0.019 0 0 Z M1.652 13.664 C1.628 19.2 1.61 24.736 1.597 30.272 C1.592 32.156 1.586 34.041 1.577 35.926 C1.565 38.629 1.559 41.332 1.555 44.035 C1.549 45.664 1.544 47.292 1.539 48.97 C1.652 52.664 1.652 52.664 2.652 53.664 C4.632 53.499 4.632 53.499 14.652 52.664 C14.652 39.794 14.652 26.924 14.652 13.664 C10.362 13.664 6.072 13.664 1.652 13.664 Z " fill="#000000" transform="translate(178.34765625,983.3359375)"/>
<path d="M0 0 C1.41 0.003 2.819 0.005 4.271 0.008 C5.738 0.036 7.204 0.065 8.715 0.094 C10.185 0.091 11.655 0.089 13.17 0.086 C24.109 0.186 24.109 0.186 28.652 3.594 C29.154 6.212 29.154 6.212 29.154 9.395 C29.163 10.586 29.173 11.777 29.182 13.005 C29.171 14.292 29.16 15.58 29.148 16.906 C29.15 18.227 29.151 19.547 29.153 20.907 C29.151 23.702 29.14 26.496 29.119 29.29 C29.09 33.577 29.098 37.862 29.111 42.148 C29.105 44.859 29.097 47.57 29.086 50.281 C29.089 51.569 29.092 52.856 29.095 54.183 C29.088 54.779 29.088 54.779 29.056 57.793 C29.051 58.843 29.046 59.893 29.04 60.975 C28.652 63.594 28.652 63.594 25.652 66.594 C20.036 67.288 14.37 67.103 8.715 67.094 C7.14 67.122 5.566 67.15 3.943 67.18 C2.436 67.182 0.928 67.185 -0.625 67.188 C-2.009 67.195 -3.394 67.202 -4.82 67.209 C-8.348 66.594 -8.348 66.594 -10.795 64.842 C-13.253 59.7 -12.938 54.659 -12.914 49.031 C-12.92 47.807 -12.926 46.583 -12.933 45.322 C-12.94 42.736 -12.937 40.151 -12.924 37.565 C-12.91 33.608 -12.944 29.653 -12.982 25.695 C-12.983 23.182 -12.982 20.669 -12.977 18.156 C-12.99 16.973 -13.003 15.789 -13.017 14.57 C-12.925 6.495 -12.925 6.495 -10.268 2.346 C-6.6 0.145 -4.268 -0.023 0 0 Z M1.652 13.594 C1.628 19.13 1.61 24.665 1.597 30.201 C1.592 32.086 1.586 33.971 1.577 35.856 C1.565 38.559 1.559 41.262 1.555 43.965 C1.549 45.593 1.544 47.222 1.539 48.9 C1.652 52.594 1.652 52.594 2.652 53.594 C4.65 53.692 6.652 53.723 8.652 53.719 C9.745 53.721 10.839 53.724 11.965 53.727 C14.652 53.594 14.652 53.594 15.652 52.594 C15.753 49.804 15.783 47.011 15.785 44.219 C15.786 43.379 15.787 42.539 15.788 41.674 C15.789 39.896 15.787 38.117 15.783 36.338 C15.777 33.605 15.783 30.873 15.789 28.141 C15.788 26.417 15.787 24.693 15.785 22.969 C15.784 21.388 15.783 19.808 15.782 18.18 C15.652 14.594 15.652 14.594 14.652 13.594 C12.466 13.521 10.277 13.51 8.09 13.531 C6.892 13.54 5.695 13.549 4.461 13.559 C3.998 13.564 3.998 13.564 1.652 13.594 Z " fill="#000000" transform="translate(269.34765625,983.40625)"/>
<path d="M0 0 C1.413 -0.001 2.826 -0.001 4.281 -0.002 C5.756 0.018 7.231 0.038 8.75 0.059 C10.225 0.052 11.699 0.044 13.219 0.037 C24.225 0.102 24.225 0.102 28.75 3.496 C29.251 6.115 29.251 6.115 29.252 9.297 C29.261 10.488 29.27 11.68 29.28 12.907 C29.269 14.195 29.258 15.482 29.246 16.809 C29.248 18.129 29.249 19.449 29.251 20.81 C29.249 23.604 29.237 26.398 29.217 29.192 C29.188 33.479 29.196 37.764 29.209 42.051 C29.203 44.762 29.194 47.473 29.184 50.184 C29.187 51.471 29.189 52.759 29.192 54.085 C29.186 54.681 29.186 54.681 29.154 57.695 C29.149 58.745 29.143 59.796 29.138 60.878 C28.75 63.496 28.75 63.496 25.75 66.496 C22.336 66.884 22.336 66.884 18.125 66.895 C17.37 66.896 17.37 66.896 13.547 66.906 C11.964 66.895 10.381 66.883 8.75 66.871 C7.959 66.877 7.959 66.877 3.953 66.906 C3.198 66.904 3.198 66.904 -0.625 66.895 C-2.015 66.891 -3.404 66.888 -4.836 66.884 C-8.25 66.496 -8.25 66.496 -11.25 63.496 C-11.638 60.922 -11.638 60.922 -11.654 57.803 C-11.667 56.635 -11.679 55.467 -11.692 54.263 C-11.69 53.001 -11.687 51.738 -11.684 50.438 C-11.689 49.142 -11.694 47.846 -11.699 46.511 C-11.706 43.768 -11.705 41.025 -11.696 38.282 C-11.688 34.079 -11.716 29.877 -11.748 25.674 C-11.75 23.012 -11.749 20.35 -11.746 17.688 C-11.757 16.427 -11.769 15.167 -11.78 13.868 C-11.771 12.697 -11.761 11.525 -11.752 10.319 C-11.752 9.288 -11.751 8.258 -11.751 7.197 C-10.515 0.537 -6.001 -0.009 0 0 Z M1.75 14.496 C1.531 19.912 1.564 25.332 1.565 30.752 C1.563 33.485 1.544 36.217 1.525 38.949 C1.522 40.673 1.52 42.397 1.52 44.121 C1.515 45.701 1.511 47.282 1.507 48.91 C1.547 49.502 1.547 49.502 1.75 52.496 C4.586 53.914 6.741 53.359 9.875 53.059 C10.423 53.008 10.423 53.008 13.195 52.75 C14.038 52.666 14.881 52.582 15.75 52.496 C15.775 47.103 15.793 41.709 15.805 36.316 C15.81 34.479 15.817 32.643 15.825 30.807 C15.838 28.173 15.843 25.54 15.848 22.906 C15.853 21.319 15.858 19.733 15.864 18.098 C15.75 14.496 15.75 14.496 14.75 13.496 C12.752 13.397 10.75 13.366 8.75 13.371 C7.657 13.369 6.564 13.366 5.438 13.363 C2.75 13.496 2.75 13.496 1.75 14.496 Z " fill="#000000" transform="translate(1087.25,983.50390625)"/>
<path d="M0 0 C1.458 -0.006 2.916 -0.013 4.418 -0.02 C5.94 -0 7.463 0.019 9.031 0.039 C9.792 0.029 9.792 0.029 13.645 -0.02 C14.373 -0.016 14.373 -0.016 18.062 0 C19.399 0.006 20.735 0.011 22.111 0.017 C25.531 0.664 25.531 0.664 27.713 2.846 C29.773 6.038 30.037 7.643 30.049 11.401 C30.061 12.529 30.074 13.656 30.087 14.818 C30.079 16.027 30.071 17.235 30.062 18.48 C30.066 19.729 30.07 20.978 30.074 22.264 C30.077 24.901 30.069 27.538 30.053 30.175 C30.031 34.215 30.053 38.254 30.078 42.295 C30.075 44.857 30.07 47.419 30.062 49.98 C30.071 51.191 30.079 52.401 30.087 53.649 C30.074 54.773 30.062 55.898 30.049 57.057 C30.047 57.551 30.047 57.551 30.039 60.053 C29.386 63.409 28.211 64.598 25.531 66.664 C22.111 67.182 22.111 67.182 18.062 67.195 C17.334 67.198 17.334 67.198 13.645 67.211 C12.883 67.203 12.883 67.203 9.031 67.164 C8.27 67.172 8.27 67.172 4.418 67.211 C2.96 67.206 1.502 67.201 0 67.195 C-1.336 67.191 -2.672 67.186 -4.049 67.182 C-8.081 66.571 -8.994 65.819 -11.469 62.664 C-11.977 60.053 -11.977 60.053 -11.986 57.057 C-11.999 55.932 -12.012 54.807 -12.025 53.649 C-12.016 52.438 -12.008 51.228 -12 49.98 C-12.004 48.733 -12.008 47.485 -12.012 46.2 C-12.014 43.561 -12.007 40.922 -11.99 38.284 C-11.969 34.245 -11.99 30.208 -12.016 26.17 C-12.013 23.607 -12.008 21.044 -12 18.48 C-12.008 17.272 -12.016 16.064 -12.025 14.818 C-12.012 13.691 -11.999 12.563 -11.986 11.401 C-11.983 10.411 -11.98 9.422 -11.977 8.402 C-10.658 1.292 -6.631 0.028 0 0 Z M2.531 13.664 C2.531 26.864 2.531 40.064 2.531 53.664 C11.531 53.664 11.531 53.664 15.531 52.664 C15.531 39.794 15.531 26.924 15.531 13.664 C11.241 13.664 6.951 13.664 2.531 13.664 Z " fill="#000000" transform="translate(1177.46875,983.3359375)"/>
</svg>
